M48
METRIC,LZ,000.000
;FILE_FORMAT=3:3
;TYPE=PLATED
;Layer: PTH_Through
;EasyEDA v6.5.51, 2026-01-14 15:08:39
;dde8d36dd7f6405bbf5d2bde1aba3d06,1eba0ef7a20a4348ba21f928fdb5677a,10
;Gerber Generator version 0.2
;Holesize 1 = 1.016 mm
T01C1.016
;Holesize 2 = 1.200 mm
T02C1.200
;Holesize 3 = 2.002 mm
T03C2.002
%
G05
G90
T01
X093000Y054970
X093000Y052430
X093000Y049890
X093000Y047350
X093000Y044810
X093000Y042270
X093000Y039730
X093000Y037190
X093000Y034650
X093000Y032110
X093000Y029570
X093000Y027030
T02
X114417Y052619
X114420Y049851
X114420Y047079
X114420Y044311
X114420Y041540
X114420Y038771
X114420Y036000
X114420Y033231
X114420Y030460
X114420Y027689
X114420Y024920
X114420Y022149
X114420Y019381
X111580Y051288
X111580Y048509
X111580Y045731
X111580Y042949
X111580Y040171
X111580Y037389
X111580Y034611
X111580Y031829
X111580Y029050
X111580Y026269
X111580Y023490
X111580Y020709
T03
X015000Y060000
X015000Y070000
X035000Y060000
X035000Y070000
X055000Y060000
X055000Y070000
X075000Y060000
X075000Y070000
X075000Y010000
X075000Y020000
X055000Y010000
X055000Y020000
X035000Y010000
X035000Y020000
X020000Y010000
X020000Y020000
M30
