G04 Layer: TopSilkscreenLayer*
G04 EasyEDA v6.5.51, 2026-01-14 15:08:39*
G04 dde8d36dd7f6405bbf5d2bde1aba3d06,1eba0ef7a20a4348ba21f928fdb5677a,10*
G04 Gerber Generator version 0.2*
G04 Scale: 100 percent, Rotated: No, Reflected: No *
G04 Dimensions in millimeters *
G04 leading zeros omitted , absolute positions ,4 integer and 5 decimal *
%FSLAX45Y45*%
%MOMM*%

%ADD10C,0.2032*%
%ADD11C,0.1524*%
%ADD12C,0.1501*%
%ADD13C,0.2540*%
%ADD14C,0.0131*%

%LPD*%
D10*
X8358733Y1790852D02*
G01*
X8368131Y1790852D01*
X8386673Y1781454D01*
X8395817Y1772310D01*
X8404961Y1753768D01*
X8404961Y1716938D01*
X8395817Y1698396D01*
X8386673Y1689252D01*
X8368131Y1679854D01*
X8349589Y1679854D01*
X8331047Y1689252D01*
X8303361Y1707540D01*
X8211159Y1799996D01*
X8211159Y1670710D01*
X8294217Y1609750D02*
G01*
X8294217Y1443380D01*
X8368131Y1382420D02*
G01*
X8377275Y1364132D01*
X8404961Y1336446D01*
X8211159Y1336446D01*
X6705117Y1907743D02*
G01*
X6575831Y1999945D01*
X6575831Y1861515D01*
X6705117Y1907743D02*
G01*
X6511061Y1907743D01*
X6594119Y1800555D02*
G01*
X6594119Y1634185D01*
X6705117Y1554683D02*
G01*
X6705117Y1453083D01*
X6631203Y1508709D01*
X6631203Y1481023D01*
X6621805Y1462481D01*
X6612661Y1453083D01*
X6584975Y1443939D01*
X6566433Y1443939D01*
X6538747Y1453083D01*
X6520205Y1471625D01*
X6511061Y1499311D01*
X6511061Y1526997D01*
X6520205Y1554683D01*
X6529603Y1564081D01*
X6547891Y1573225D01*
X4677435Y1889125D02*
G01*
X4695723Y1898269D01*
X4705121Y1926209D01*
X4705121Y1944496D01*
X4695723Y1972182D01*
X4668037Y1990725D01*
X4621809Y1999869D01*
X4575835Y1999869D01*
X4538751Y1990725D01*
X4520209Y1972182D01*
X4511065Y1944496D01*
X4511065Y1935353D01*
X4520209Y1907667D01*
X4538751Y1889125D01*
X4566437Y1879980D01*
X4575835Y1879980D01*
X4603521Y1889125D01*
X4621809Y1907667D01*
X4631207Y1935353D01*
X4631207Y1944496D01*
X4621809Y1972182D01*
X4603521Y1990725D01*
X4575835Y1999869D01*
X4594123Y1819020D02*
G01*
X4594123Y1652651D01*
X4705121Y1480946D02*
G01*
X4705121Y1573148D01*
X4621809Y1582546D01*
X4631207Y1573148D01*
X4640351Y1545462D01*
X4640351Y1517777D01*
X4631207Y1490090D01*
X4612665Y1471548D01*
X4584979Y1462404D01*
X4566437Y1462404D01*
X4538751Y1471548D01*
X4520209Y1490090D01*
X4511065Y1517777D01*
X4511065Y1545462D01*
X4520209Y1573148D01*
X4529607Y1582546D01*
X4547895Y1591690D01*
X3005124Y1753895D02*
G01*
X2995726Y1781581D01*
X2977438Y1790725D01*
X2958896Y1790725D01*
X2940354Y1781581D01*
X2931210Y1763039D01*
X2921812Y1726209D01*
X2912668Y1698269D01*
X2894126Y1679981D01*
X2875838Y1670583D01*
X2847898Y1670583D01*
X2829610Y1679981D01*
X2820212Y1689125D01*
X2811068Y1716811D01*
X2811068Y1753895D01*
X2820212Y1781581D01*
X2829610Y1790725D01*
X2847898Y1799869D01*
X2875838Y1799869D01*
X2894126Y1790725D01*
X2912668Y1772183D01*
X2921812Y1744497D01*
X2931210Y1707667D01*
X2940354Y1689125D01*
X2958896Y1679981D01*
X2977438Y1679981D01*
X2995726Y1689125D01*
X3005124Y1716811D01*
X3005124Y1753895D01*
X2894126Y1609623D02*
G01*
X2894126Y1443507D01*
X3005124Y1253261D02*
G01*
X2811068Y1345463D01*
X3005124Y1382547D02*
G01*
X3005124Y1253261D01*
X8368029Y6699859D02*
G01*
X8377427Y6681571D01*
X8405113Y6653885D01*
X8211058Y6653885D01*
X8377427Y6481927D02*
G01*
X8395715Y6491325D01*
X8405113Y6519011D01*
X8405113Y6537299D01*
X8395715Y6565239D01*
X8368029Y6583527D01*
X8321802Y6592925D01*
X8275827Y6592925D01*
X8238743Y6583527D01*
X8220202Y6565239D01*
X8211058Y6537299D01*
X8211058Y6528155D01*
X8220202Y6500469D01*
X8238743Y6481927D01*
X8266429Y6472783D01*
X8275827Y6472783D01*
X8303513Y6481927D01*
X8321802Y6500469D01*
X8331200Y6528155D01*
X8331200Y6537299D01*
X8321802Y6565239D01*
X8303513Y6583527D01*
X8275827Y6592925D01*
X8294115Y6411823D02*
G01*
X8294115Y6245453D01*
X8368029Y6184493D02*
G01*
X8377427Y6166205D01*
X8405113Y6138519D01*
X8211058Y6138519D01*
X8405113Y5966561D02*
G01*
X8405113Y6059017D01*
X8321802Y6068161D01*
X8331200Y6059017D01*
X8340343Y6031331D01*
X8340343Y6003645D01*
X8331200Y5975959D01*
X8312658Y5957417D01*
X8284972Y5948019D01*
X8266429Y5948019D01*
X8238743Y5957417D01*
X8220202Y5975959D01*
X8211058Y6003645D01*
X8211058Y6031331D01*
X8220202Y6059017D01*
X8229600Y6068161D01*
X8247888Y6077559D01*
X6368034Y6699859D02*
G01*
X6377431Y6681571D01*
X6405118Y6653885D01*
X6211061Y6653885D01*
X6405118Y6500469D02*
G01*
X6275831Y6592925D01*
X6275831Y6454241D01*
X6405118Y6500469D02*
G01*
X6211061Y6500469D01*
X6294120Y6393281D02*
G01*
X6294120Y6227165D01*
X6368034Y6166205D02*
G01*
X6377431Y6147663D01*
X6405118Y6119977D01*
X6211061Y6119977D01*
X6405118Y6040475D02*
G01*
X6405118Y5938875D01*
X6331204Y5994247D01*
X6331204Y5966561D01*
X6321806Y5948019D01*
X6312661Y5938875D01*
X6284975Y5929731D01*
X6266434Y5929731D01*
X6238747Y5938875D01*
X6220206Y5957417D01*
X6211061Y5985103D01*
X6211061Y6012789D01*
X6220206Y6040475D01*
X6229604Y6049619D01*
X6247891Y6059017D01*
X4568037Y6699859D02*
G01*
X4577435Y6681571D01*
X4605121Y6653885D01*
X4411065Y6653885D01*
X4558893Y6583527D02*
G01*
X4568037Y6583527D01*
X4586579Y6574383D01*
X4595723Y6565239D01*
X4605121Y6546697D01*
X4605121Y6509613D01*
X4595723Y6491325D01*
X4586579Y6481927D01*
X4568037Y6472783D01*
X4549495Y6472783D01*
X4531207Y6481927D01*
X4503521Y6500469D01*
X4411065Y6592925D01*
X4411065Y6463639D01*
X4494123Y6402679D02*
G01*
X4494123Y6236309D01*
X4568037Y6175349D02*
G01*
X4577435Y6156807D01*
X4605121Y6129121D01*
X4411065Y6129121D01*
X4568037Y6068161D02*
G01*
X4577435Y6049619D01*
X4605121Y6021933D01*
X4411065Y6021933D01*
X2568041Y6699859D02*
G01*
X2577439Y6681571D01*
X2605125Y6653885D01*
X2411069Y6653885D01*
X2605125Y6537299D02*
G01*
X2595727Y6565239D01*
X2568041Y6583527D01*
X2521813Y6592925D01*
X2494127Y6592925D01*
X2447899Y6583527D01*
X2420213Y6565239D01*
X2411069Y6537299D01*
X2411069Y6519011D01*
X2420213Y6491325D01*
X2447899Y6472783D01*
X2494127Y6463639D01*
X2521813Y6463639D01*
X2568041Y6472783D01*
X2595727Y6491325D01*
X2605125Y6519011D01*
X2605125Y6537299D01*
X2494127Y6402679D02*
G01*
X2494127Y6236309D01*
X2540355Y6055207D02*
G01*
X2512669Y6064605D01*
X2494127Y6082893D01*
X2484983Y6110579D01*
X2484983Y6119977D01*
X2494127Y6147663D01*
X2512669Y6166205D01*
X2540355Y6175349D01*
X2549499Y6175349D01*
X2577439Y6166205D01*
X2595727Y6147663D01*
X2605125Y6119977D01*
X2605125Y6110579D01*
X2595727Y6082893D01*
X2577439Y6064605D01*
X2540355Y6055207D01*
X2494127Y6055207D01*
X2447899Y6064605D01*
X2420213Y6082893D01*
X2411069Y6110579D01*
X2411069Y6129121D01*
X2420213Y6156807D01*
X2438755Y6166205D01*
X8868105Y5599963D02*
G01*
X8877249Y5581421D01*
X8904935Y5553735D01*
X8711133Y5553735D01*
X8904935Y5400573D02*
G01*
X8775649Y5492775D01*
X8775649Y5354345D01*
X8904935Y5400573D02*
G01*
X8711133Y5400573D01*
X8904909Y2681604D02*
G01*
X8904909Y2580004D01*
X8831249Y2635377D01*
X8831249Y2607690D01*
X8821851Y2589148D01*
X8812707Y2580004D01*
X8785021Y2570606D01*
X8766479Y2570606D01*
X8738793Y2580004D01*
X8720251Y2598293D01*
X8711107Y2625979D01*
X8711107Y2653919D01*
X8720251Y2681604D01*
X8729649Y2690748D01*
X8747937Y2699893D01*
D11*
X12101093Y3625392D02*
G01*
X11992127Y3625392D01*
X12101093Y3625392D02*
G01*
X12101093Y3589070D01*
X12096013Y3573322D01*
X12085599Y3563162D01*
X12075185Y3557828D01*
X12059437Y3552748D01*
X12033529Y3552748D01*
X12018035Y3557828D01*
X12007621Y3563162D01*
X11997207Y3573322D01*
X11992127Y3589070D01*
X11992127Y3625392D01*
X12085599Y3445560D02*
G01*
X12096013Y3455974D01*
X12101093Y3471722D01*
X12101093Y3492296D01*
X12096013Y3508044D01*
X12085599Y3518458D01*
X12075185Y3518458D01*
X12064771Y3513124D01*
X12059437Y3508044D01*
X12054357Y3497630D01*
X12043943Y3466388D01*
X12038863Y3455974D01*
X12033529Y3450894D01*
X12023115Y3445560D01*
X12007621Y3445560D01*
X11997207Y3455974D01*
X11992127Y3471722D01*
X11992127Y3492296D01*
X11997207Y3508044D01*
X12007621Y3518458D01*
X12101093Y3411270D02*
G01*
X12023115Y3411270D01*
X12007621Y3406190D01*
X11997207Y3395776D01*
X11992127Y3380282D01*
X11992127Y3369868D01*
X11997207Y3354120D01*
X12007621Y3343706D01*
X12023115Y3338626D01*
X12101093Y3338626D01*
X12101093Y3304336D02*
G01*
X11992127Y3304336D01*
X12101093Y3304336D02*
G01*
X12101093Y3257600D01*
X12096013Y3241852D01*
X12090679Y3236772D01*
X12080265Y3231692D01*
X12069851Y3231692D01*
X12059437Y3236772D01*
X12054357Y3241852D01*
X12049277Y3257600D01*
X12049277Y3304336D02*
G01*
X12049277Y3257600D01*
X12043943Y3241852D01*
X12038863Y3236772D01*
X12028449Y3231692D01*
X12012701Y3231692D01*
X12002287Y3236772D01*
X11997207Y3241852D01*
X11992127Y3257600D01*
X11992127Y3304336D01*
X12080265Y3197402D02*
G01*
X12085599Y3186988D01*
X12101093Y3171240D01*
X11992127Y3171240D01*
D12*
X11581691Y5389981D02*
G01*
X11586263Y5380837D01*
X11599979Y5367121D01*
X11504475Y5367121D01*
X11585727Y1880158D02*
G01*
X11590299Y1871014D01*
X11604015Y1857552D01*
X11508511Y1857552D01*
X11604015Y1818436D02*
G01*
X11604015Y1768398D01*
X11567693Y1795576D01*
X11567693Y1781860D01*
X11563121Y1772970D01*
X11558549Y1768398D01*
X11544833Y1763826D01*
X11535689Y1763826D01*
X11522227Y1768398D01*
X11513083Y1777542D01*
X11508511Y1791004D01*
X11508511Y1804720D01*
X11513083Y1818436D01*
X11517655Y1823008D01*
X11526799Y1827326D01*
X11061700Y5359984D02*
G01*
X11066272Y5350840D01*
X11079988Y5337378D01*
X10984484Y5337378D01*
X11079988Y5261686D02*
G01*
X11016234Y5307152D01*
X11016234Y5239080D01*
X11079988Y5261686D02*
G01*
X10984484Y5261686D01*
X11057125Y2015411D02*
G01*
X11061697Y2015411D01*
X11070841Y2010839D01*
X11075413Y2006267D01*
X11079985Y1997377D01*
X11079985Y1979089D01*
X11075413Y1969945D01*
X11070841Y1965373D01*
X11061697Y1960801D01*
X11052553Y1960801D01*
X11043663Y1965373D01*
X11029947Y1974517D01*
X10984481Y2019983D01*
X10984481Y1956229D01*
X11079985Y1871901D02*
G01*
X11079985Y1917367D01*
X11039091Y1921685D01*
X11043663Y1917367D01*
X11047981Y1903651D01*
X11047981Y1889935D01*
X11043663Y1876473D01*
X11034519Y1867329D01*
X11020803Y1862757D01*
X11011659Y1862757D01*
X10998197Y1867329D01*
X10989053Y1876473D01*
X10984481Y1889935D01*
X10984481Y1903651D01*
X10989053Y1917367D01*
X10993625Y1921685D01*
X11002769Y1926257D01*
D11*
X9542297Y4047921D02*
G01*
X9459239Y4047921D01*
X9443491Y4053255D01*
X9438411Y4058335D01*
X9433331Y4068749D01*
X9433331Y4079163D01*
X9438411Y4089577D01*
X9443491Y4094911D01*
X9459239Y4099991D01*
X9469653Y4099991D01*
X9542297Y4013631D02*
G01*
X9433331Y4013631D01*
X9542297Y4013631D02*
G01*
X9542297Y3966895D01*
X9537217Y3951401D01*
X9531883Y3946321D01*
X9521469Y3940987D01*
X9505975Y3940987D01*
X9495561Y3946321D01*
X9490481Y3951401D01*
X9485147Y3966895D01*
X9485147Y4013631D01*
X9521469Y3906697D02*
G01*
X9526803Y3896283D01*
X9542297Y3880789D01*
X9433331Y3880789D01*
X2115311Y6199987D02*
G01*
X2006345Y6199987D01*
X2115311Y6199987D02*
G01*
X2115311Y6153251D01*
X2110231Y6137757D01*
X2104897Y6132423D01*
X2094484Y6127343D01*
X2078990Y6127343D01*
X2068575Y6132423D01*
X2063495Y6137757D01*
X2058161Y6153251D01*
X2058161Y6199987D01*
X2115311Y6051397D02*
G01*
X2006345Y6093053D01*
X2115311Y6051397D02*
G01*
X2006345Y6009741D01*
X2042668Y6077305D02*
G01*
X2042668Y6025489D01*
X2115311Y5975451D02*
G01*
X2006345Y5975451D01*
X2115311Y5941161D02*
G01*
X2006345Y5941161D01*
X2115311Y5941161D02*
G01*
X2115311Y5894425D01*
X2110231Y5878931D01*
X2104897Y5873597D01*
X2094484Y5868517D01*
X2084070Y5868517D01*
X2073656Y5873597D01*
X2068575Y5878931D01*
X2063495Y5894425D01*
X2063495Y5941161D01*
X2063495Y5904839D02*
G01*
X2006345Y5868517D01*
X2115311Y5771997D02*
G01*
X2115311Y5823813D01*
X2068575Y5829147D01*
X2073656Y5823813D01*
X2078990Y5808319D01*
X2078990Y5792571D01*
X2073656Y5777077D01*
X2063495Y5766663D01*
X2047747Y5761583D01*
X2037334Y5761583D01*
X2021840Y5766663D01*
X2011425Y5777077D01*
X2006345Y5792571D01*
X2006345Y5808319D01*
X2011425Y5823813D01*
X2016506Y5829147D01*
X2026920Y5834227D01*
X1969770Y5727293D02*
G01*
X1969770Y5633567D01*
X2115311Y5599277D02*
G01*
X2006345Y5599277D01*
X2115311Y5599277D02*
G01*
X2006345Y5526633D01*
X2115311Y5526633D02*
G01*
X2006345Y5526633D01*
X2115311Y5492343D02*
G01*
X2006345Y5492343D01*
X2115311Y5492343D02*
G01*
X2115311Y5424779D01*
X2063495Y5492343D02*
G01*
X2063495Y5450687D01*
X2006345Y5492343D02*
G01*
X2006345Y5424779D01*
X2089404Y5312511D02*
G01*
X2099818Y5317845D01*
X2110231Y5328259D01*
X2115311Y5338673D01*
X2115311Y5359247D01*
X2110231Y5369661D01*
X2099818Y5380075D01*
X2089404Y5385409D01*
X2073656Y5390489D01*
X2047747Y5390489D01*
X2032254Y5385409D01*
X2021840Y5380075D01*
X2011425Y5369661D01*
X2006345Y5359247D01*
X2006345Y5338673D01*
X2011425Y5328259D01*
X2021840Y5317845D01*
X2032254Y5312511D01*
X2047747Y5312511D01*
X2047747Y5338673D02*
G01*
X2047747Y5312511D01*
X2115311Y7399985D02*
G01*
X2006345Y7399985D01*
X2115311Y7399985D02*
G01*
X2115311Y7353249D01*
X2110231Y7337755D01*
X2104897Y7332421D01*
X2094484Y7327341D01*
X2078990Y7327341D01*
X2068575Y7332421D01*
X2063495Y7337755D01*
X2058161Y7353249D01*
X2058161Y7399985D01*
X2115311Y7251395D02*
G01*
X2006345Y7293051D01*
X2115311Y7251395D02*
G01*
X2006345Y7209739D01*
X2042668Y7277303D02*
G01*
X2042668Y7225487D01*
X2115311Y7175449D02*
G01*
X2006345Y7175449D01*
X2115311Y7141159D02*
G01*
X2006345Y7141159D01*
X2115311Y7141159D02*
G01*
X2115311Y7094423D01*
X2110231Y7078929D01*
X2104897Y7073595D01*
X2094484Y7068515D01*
X2084070Y7068515D01*
X2073656Y7073595D01*
X2068575Y7078929D01*
X2063495Y7094423D01*
X2063495Y7141159D01*
X2063495Y7104837D02*
G01*
X2006345Y7068515D01*
X2115311Y6971995D02*
G01*
X2115311Y7023811D01*
X2068575Y7029145D01*
X2073656Y7023811D01*
X2078990Y7008317D01*
X2078990Y6992569D01*
X2073656Y6977075D01*
X2063495Y6966661D01*
X2047747Y6961581D01*
X2037334Y6961581D01*
X2021840Y6966661D01*
X2011425Y6977075D01*
X2006345Y6992569D01*
X2006345Y7008317D01*
X2011425Y7023811D01*
X2016506Y7029145D01*
X2026920Y7034225D01*
X1969770Y6927291D02*
G01*
X1969770Y6833565D01*
X2115311Y6799275D02*
G01*
X2006345Y6799275D01*
X2115311Y6799275D02*
G01*
X2115311Y6752539D01*
X2110231Y6737045D01*
X2104897Y6731965D01*
X2094484Y6726631D01*
X2078990Y6726631D01*
X2068575Y6731965D01*
X2063495Y6737045D01*
X2058161Y6752539D01*
X2058161Y6799275D01*
X2115311Y6661099D02*
G01*
X2110231Y6671513D01*
X2099818Y6681927D01*
X2089404Y6687261D01*
X2073656Y6692341D01*
X2047747Y6692341D01*
X2032254Y6687261D01*
X2021840Y6681927D01*
X2011425Y6671513D01*
X2006345Y6661099D01*
X2006345Y6640525D01*
X2011425Y6630111D01*
X2021840Y6619697D01*
X2032254Y6614363D01*
X2047747Y6609283D01*
X2073656Y6609283D01*
X2089404Y6614363D01*
X2099818Y6619697D01*
X2110231Y6630111D01*
X2115311Y6640525D01*
X2115311Y6661099D01*
X2099818Y6502095D02*
G01*
X2110231Y6512509D01*
X2115311Y6528257D01*
X2115311Y6549085D01*
X2110231Y6564579D01*
X2099818Y6574993D01*
X2089404Y6574993D01*
X2078990Y6569659D01*
X2073656Y6564579D01*
X2068575Y6554165D01*
X2058161Y6522923D01*
X2053081Y6512509D01*
X2047747Y6507429D01*
X2037334Y6502095D01*
X2021840Y6502095D01*
X2011425Y6512509D01*
X2006345Y6528257D01*
X2006345Y6549085D01*
X2011425Y6564579D01*
X2021840Y6574993D01*
X4115308Y6099987D02*
G01*
X4006341Y6099987D01*
X4115308Y6099987D02*
G01*
X4115308Y6053251D01*
X4110227Y6037757D01*
X4104893Y6032423D01*
X4094479Y6027343D01*
X4078986Y6027343D01*
X4068572Y6032423D01*
X4063491Y6037757D01*
X4058158Y6053251D01*
X4058158Y6099987D01*
X4115308Y5951397D02*
G01*
X4006341Y5993053D01*
X4115308Y5951397D02*
G01*
X4006341Y5909741D01*
X4042663Y5977305D02*
G01*
X4042663Y5925489D01*
X4115308Y5875451D02*
G01*
X4006341Y5875451D01*
X4115308Y5841161D02*
G01*
X4006341Y5841161D01*
X4115308Y5841161D02*
G01*
X4115308Y5794425D01*
X4110227Y5778931D01*
X4104893Y5773597D01*
X4094479Y5768517D01*
X4084065Y5768517D01*
X4073652Y5773597D01*
X4068572Y5778931D01*
X4063491Y5794425D01*
X4063491Y5841161D01*
X4063491Y5804839D02*
G01*
X4006341Y5768517D01*
X4099813Y5671997D02*
G01*
X4110227Y5677077D01*
X4115308Y5692571D01*
X4115308Y5702985D01*
X4110227Y5718733D01*
X4094479Y5729147D01*
X4068572Y5734227D01*
X4042663Y5734227D01*
X4021836Y5729147D01*
X4011422Y5718733D01*
X4006341Y5702985D01*
X4006341Y5697905D01*
X4011422Y5682157D01*
X4021836Y5671997D01*
X4037329Y5666663D01*
X4042663Y5666663D01*
X4058158Y5671997D01*
X4068572Y5682157D01*
X4073652Y5697905D01*
X4073652Y5702985D01*
X4068572Y5718733D01*
X4058158Y5729147D01*
X4042663Y5734227D01*
X3969765Y5632373D02*
G01*
X3969765Y5538901D01*
X4115308Y5504611D02*
G01*
X4006341Y5504611D01*
X4115308Y5504611D02*
G01*
X4006341Y5431967D01*
X4115308Y5431967D02*
G01*
X4006341Y5431967D01*
X4115308Y5397677D02*
G01*
X4006341Y5397677D01*
X4115308Y5397677D02*
G01*
X4115308Y5330113D01*
X4063491Y5397677D02*
G01*
X4063491Y5356021D01*
X4006341Y5397677D02*
G01*
X4006341Y5330113D01*
X4089400Y5217845D02*
G01*
X4099813Y5222925D01*
X4110227Y5233339D01*
X4115308Y5243753D01*
X4115308Y5264581D01*
X4110227Y5274995D01*
X4099813Y5285409D01*
X4089400Y5290489D01*
X4073652Y5295823D01*
X4047743Y5295823D01*
X4032250Y5290489D01*
X4021836Y5285409D01*
X4011422Y5274995D01*
X4006341Y5264581D01*
X4006341Y5243753D01*
X4011422Y5233339D01*
X4021836Y5222925D01*
X4032250Y5217845D01*
X4047743Y5217845D01*
X4047743Y5243753D02*
G01*
X4047743Y5217845D01*
X4115308Y7299985D02*
G01*
X4006341Y7299985D01*
X4115308Y7299985D02*
G01*
X4115308Y7253249D01*
X4110227Y7237755D01*
X4104893Y7232421D01*
X4094479Y7227341D01*
X4078986Y7227341D01*
X4068572Y7232421D01*
X4063491Y7237755D01*
X4058158Y7253249D01*
X4058158Y7299985D01*
X4115308Y7151395D02*
G01*
X4006341Y7193051D01*
X4115308Y7151395D02*
G01*
X4006341Y7109739D01*
X4042663Y7177303D02*
G01*
X4042663Y7125487D01*
X4115308Y7075449D02*
G01*
X4006341Y7075449D01*
X4115308Y7041159D02*
G01*
X4006341Y7041159D01*
X4115308Y7041159D02*
G01*
X4115308Y6994423D01*
X4110227Y6978929D01*
X4104893Y6973595D01*
X4094479Y6968515D01*
X4084065Y6968515D01*
X4073652Y6973595D01*
X4068572Y6978929D01*
X4063491Y6994423D01*
X4063491Y7041159D01*
X4063491Y7004837D02*
G01*
X4006341Y6968515D01*
X4099813Y6871995D02*
G01*
X4110227Y6877075D01*
X4115308Y6892569D01*
X4115308Y6902983D01*
X4110227Y6918731D01*
X4094479Y6929145D01*
X4068572Y6934225D01*
X4042663Y6934225D01*
X4021836Y6929145D01*
X4011422Y6918731D01*
X4006341Y6902983D01*
X4006341Y6897903D01*
X4011422Y6882155D01*
X4021836Y6871995D01*
X4037329Y6866661D01*
X4042663Y6866661D01*
X4058158Y6871995D01*
X4068572Y6882155D01*
X4073652Y6897903D01*
X4073652Y6902983D01*
X4068572Y6918731D01*
X4058158Y6929145D01*
X4042663Y6934225D01*
X3969765Y6832371D02*
G01*
X3969765Y6738899D01*
X4115308Y6704609D02*
G01*
X4006341Y6704609D01*
X4115308Y6704609D02*
G01*
X4115308Y6657873D01*
X4110227Y6642125D01*
X4104893Y6637045D01*
X4094479Y6631965D01*
X4078986Y6631965D01*
X4068572Y6637045D01*
X4063491Y6642125D01*
X4058158Y6657873D01*
X4058158Y6704609D01*
X4115308Y6566433D02*
G01*
X4110227Y6576847D01*
X4099813Y6587261D01*
X4089400Y6592341D01*
X4073652Y6597675D01*
X4047743Y6597675D01*
X4032250Y6592341D01*
X4021836Y6587261D01*
X4011422Y6576847D01*
X4006341Y6566433D01*
X4006341Y6545605D01*
X4011422Y6535191D01*
X4021836Y6524777D01*
X4032250Y6519697D01*
X4047743Y6514363D01*
X4073652Y6514363D01*
X4089400Y6519697D01*
X4099813Y6524777D01*
X4110227Y6535191D01*
X4115308Y6545605D01*
X4115308Y6566433D01*
X4099813Y6407429D02*
G01*
X4110227Y6417843D01*
X4115308Y6433337D01*
X4115308Y6454165D01*
X4110227Y6469659D01*
X4099813Y6480073D01*
X4089400Y6480073D01*
X4078986Y6474993D01*
X4073652Y6469659D01*
X4068572Y6459245D01*
X4058158Y6428257D01*
X4053077Y6417843D01*
X4047743Y6412509D01*
X4037329Y6407429D01*
X4021836Y6407429D01*
X4011422Y6417843D01*
X4006341Y6433337D01*
X4006341Y6454165D01*
X4011422Y6469659D01*
X4021836Y6480073D01*
X6115304Y5999987D02*
G01*
X6006338Y5999987D01*
X6115304Y5999987D02*
G01*
X6115304Y5953252D01*
X6110224Y5937757D01*
X6104890Y5932423D01*
X6094475Y5927344D01*
X6078981Y5927344D01*
X6068568Y5932423D01*
X6063488Y5937757D01*
X6058154Y5953252D01*
X6058154Y5999987D01*
X6115304Y5851397D02*
G01*
X6006338Y5893054D01*
X6115304Y5851397D02*
G01*
X6006338Y5809742D01*
X6042659Y5877305D02*
G01*
X6042659Y5825489D01*
X6115304Y5775452D02*
G01*
X6006338Y5775452D01*
X6115304Y5741162D02*
G01*
X6006338Y5741162D01*
X6115304Y5741162D02*
G01*
X6115304Y5694426D01*
X6110224Y5678931D01*
X6104890Y5673597D01*
X6094475Y5668518D01*
X6084061Y5668518D01*
X6073647Y5673597D01*
X6068568Y5678931D01*
X6063488Y5694426D01*
X6063488Y5741162D01*
X6063488Y5704839D02*
G01*
X6006338Y5668518D01*
X6115304Y5561584D02*
G01*
X6006338Y5613400D01*
X6115304Y5634228D02*
G01*
X6115304Y5561584D01*
X5969761Y5527294D02*
G01*
X5969761Y5433568D01*
X6115304Y5399278D02*
G01*
X6006338Y5399278D01*
X6115304Y5399278D02*
G01*
X6006338Y5326634D01*
X6115304Y5326634D02*
G01*
X6006338Y5326634D01*
X6115304Y5292344D02*
G01*
X6006338Y5292344D01*
X6115304Y5292344D02*
G01*
X6115304Y5224779D01*
X6063488Y5292344D02*
G01*
X6063488Y5250687D01*
X6006338Y5292344D02*
G01*
X6006338Y5224779D01*
X6089395Y5112512D02*
G01*
X6099809Y5117845D01*
X6110224Y5128260D01*
X6115304Y5138673D01*
X6115304Y5159247D01*
X6110224Y5169662D01*
X6099809Y5180076D01*
X6089395Y5185410D01*
X6073647Y5190489D01*
X6047740Y5190489D01*
X6032245Y5185410D01*
X6021831Y5180076D01*
X6011418Y5169662D01*
X6006338Y5159247D01*
X6006338Y5138673D01*
X6011418Y5128260D01*
X6021831Y5117845D01*
X6032245Y5112512D01*
X6047740Y5112512D01*
X6047740Y5138673D02*
G01*
X6047740Y5112512D01*
X6115304Y7199985D02*
G01*
X6006338Y7199985D01*
X6115304Y7199985D02*
G01*
X6115304Y7153249D01*
X6110224Y7137755D01*
X6104890Y7132421D01*
X6094475Y7127341D01*
X6078981Y7127341D01*
X6068568Y7132421D01*
X6063488Y7137755D01*
X6058154Y7153249D01*
X6058154Y7199985D01*
X6115304Y7051395D02*
G01*
X6006338Y7093051D01*
X6115304Y7051395D02*
G01*
X6006338Y7009739D01*
X6042659Y7077303D02*
G01*
X6042659Y7025487D01*
X6115304Y6975449D02*
G01*
X6006338Y6975449D01*
X6115304Y6941159D02*
G01*
X6006338Y6941159D01*
X6115304Y6941159D02*
G01*
X6115304Y6894423D01*
X6110224Y6878929D01*
X6104890Y6873595D01*
X6094475Y6868515D01*
X6084061Y6868515D01*
X6073647Y6873595D01*
X6068568Y6878929D01*
X6063488Y6894423D01*
X6063488Y6941159D01*
X6063488Y6904837D02*
G01*
X6006338Y6868515D01*
X6115304Y6761581D02*
G01*
X6006338Y6813397D01*
X6115304Y6834225D02*
G01*
X6115304Y6761581D01*
X5969761Y6727291D02*
G01*
X5969761Y6633565D01*
X6115304Y6599275D02*
G01*
X6006338Y6599275D01*
X6115304Y6599275D02*
G01*
X6115304Y6552539D01*
X6110224Y6537045D01*
X6104890Y6531965D01*
X6094475Y6526631D01*
X6078981Y6526631D01*
X6068568Y6531965D01*
X6063488Y6537045D01*
X6058154Y6552539D01*
X6058154Y6599275D01*
X6115304Y6461099D02*
G01*
X6110224Y6471513D01*
X6099809Y6481927D01*
X6089395Y6487261D01*
X6073647Y6492341D01*
X6047740Y6492341D01*
X6032245Y6487261D01*
X6021831Y6481927D01*
X6011418Y6471513D01*
X6006338Y6461099D01*
X6006338Y6440525D01*
X6011418Y6430111D01*
X6021831Y6419697D01*
X6032245Y6414363D01*
X6047740Y6409283D01*
X6073647Y6409283D01*
X6089395Y6414363D01*
X6099809Y6419697D01*
X6110224Y6430111D01*
X6115304Y6440525D01*
X6115304Y6461099D01*
X6099809Y6302095D02*
G01*
X6110224Y6312509D01*
X6115304Y6328257D01*
X6115304Y6349085D01*
X6110224Y6364579D01*
X6099809Y6374993D01*
X6089395Y6374993D01*
X6078981Y6369659D01*
X6073647Y6364579D01*
X6068568Y6354165D01*
X6058154Y6322923D01*
X6053074Y6312509D01*
X6047740Y6307429D01*
X6037325Y6302095D01*
X6021831Y6302095D01*
X6011418Y6312509D01*
X6006338Y6328257D01*
X6006338Y6349085D01*
X6011418Y6364579D01*
X6021831Y6374993D01*
X8015300Y5999987D02*
G01*
X7906334Y5999987D01*
X8015300Y5999987D02*
G01*
X8015300Y5953252D01*
X8010220Y5937757D01*
X8004886Y5932423D01*
X7994472Y5927344D01*
X7978978Y5927344D01*
X7968564Y5932423D01*
X7963484Y5937757D01*
X7958150Y5953252D01*
X7958150Y5999987D01*
X8015300Y5851397D02*
G01*
X7906334Y5893054D01*
X8015300Y5851397D02*
G01*
X7906334Y5809742D01*
X7942656Y5877305D02*
G01*
X7942656Y5825489D01*
X8015300Y5775452D02*
G01*
X7906334Y5775452D01*
X8015300Y5741162D02*
G01*
X7906334Y5741162D01*
X8015300Y5741162D02*
G01*
X8015300Y5694426D01*
X8010220Y5678931D01*
X8004886Y5673597D01*
X7994472Y5668518D01*
X7984058Y5668518D01*
X7973644Y5673597D01*
X7968564Y5678931D01*
X7963484Y5694426D01*
X7963484Y5741162D01*
X7963484Y5704839D02*
G01*
X7906334Y5668518D01*
X8015300Y5608320D02*
G01*
X8010220Y5623813D01*
X7999806Y5629147D01*
X7989392Y5629147D01*
X7978978Y5623813D01*
X7973644Y5613400D01*
X7968564Y5592571D01*
X7963484Y5577078D01*
X7953070Y5566663D01*
X7942656Y5561584D01*
X7926908Y5561584D01*
X7916494Y5566663D01*
X7911414Y5571997D01*
X7906334Y5587492D01*
X7906334Y5608320D01*
X7911414Y5623813D01*
X7916494Y5629147D01*
X7926908Y5634228D01*
X7942656Y5634228D01*
X7953070Y5629147D01*
X7963484Y5618734D01*
X7968564Y5602986D01*
X7973644Y5582157D01*
X7978978Y5571997D01*
X7989392Y5566663D01*
X7999806Y5566663D01*
X8010220Y5571997D01*
X8015300Y5587492D01*
X8015300Y5608320D01*
X7869758Y5527294D02*
G01*
X7869758Y5433568D01*
X8015300Y5399278D02*
G01*
X7906334Y5399278D01*
X8015300Y5399278D02*
G01*
X7906334Y5326634D01*
X8015300Y5326634D02*
G01*
X7906334Y5326634D01*
X8015300Y5292344D02*
G01*
X7906334Y5292344D01*
X8015300Y5292344D02*
G01*
X8015300Y5224779D01*
X7963484Y5292344D02*
G01*
X7963484Y5250687D01*
X7906334Y5292344D02*
G01*
X7906334Y5224779D01*
X7989392Y5112512D02*
G01*
X7999806Y5117845D01*
X8010220Y5128260D01*
X8015300Y5138673D01*
X8015300Y5159247D01*
X8010220Y5169662D01*
X7999806Y5180076D01*
X7989392Y5185410D01*
X7973644Y5190489D01*
X7947736Y5190489D01*
X7932242Y5185410D01*
X7921828Y5180076D01*
X7911414Y5169662D01*
X7906334Y5159247D01*
X7906334Y5138673D01*
X7911414Y5128260D01*
X7921828Y5117845D01*
X7932242Y5112512D01*
X7947736Y5112512D01*
X7947736Y5138673D02*
G01*
X7947736Y5112512D01*
X8015300Y7099985D02*
G01*
X7906334Y7099985D01*
X8015300Y7099985D02*
G01*
X8015300Y7053249D01*
X8010220Y7037755D01*
X8004886Y7032421D01*
X7994472Y7027341D01*
X7978978Y7027341D01*
X7968564Y7032421D01*
X7963484Y7037755D01*
X7958150Y7053249D01*
X7958150Y7099985D01*
X8015300Y6951395D02*
G01*
X7906334Y6993051D01*
X8015300Y6951395D02*
G01*
X7906334Y6909739D01*
X7942656Y6977303D02*
G01*
X7942656Y6925487D01*
X8015300Y6875449D02*
G01*
X7906334Y6875449D01*
X8015300Y6841159D02*
G01*
X7906334Y6841159D01*
X8015300Y6841159D02*
G01*
X8015300Y6794423D01*
X8010220Y6778929D01*
X8004886Y6773595D01*
X7994472Y6768515D01*
X7984058Y6768515D01*
X7973644Y6773595D01*
X7968564Y6778929D01*
X7963484Y6794423D01*
X7963484Y6841159D01*
X7963484Y6804837D02*
G01*
X7906334Y6768515D01*
X8015300Y6708317D02*
G01*
X8010220Y6723811D01*
X7999806Y6729145D01*
X7989392Y6729145D01*
X7978978Y6723811D01*
X7973644Y6713397D01*
X7968564Y6692569D01*
X7963484Y6677075D01*
X7953070Y6666661D01*
X7942656Y6661581D01*
X7926908Y6661581D01*
X7916494Y6666661D01*
X7911414Y6671995D01*
X7906334Y6687489D01*
X7906334Y6708317D01*
X7911414Y6723811D01*
X7916494Y6729145D01*
X7926908Y6734225D01*
X7942656Y6734225D01*
X7953070Y6729145D01*
X7963484Y6718731D01*
X7968564Y6702983D01*
X7973644Y6682155D01*
X7978978Y6671995D01*
X7989392Y6666661D01*
X7999806Y6666661D01*
X8010220Y6671995D01*
X8015300Y6687489D01*
X8015300Y6708317D01*
X7869758Y6627291D02*
G01*
X7869758Y6533565D01*
X8015300Y6499275D02*
G01*
X7906334Y6499275D01*
X8015300Y6499275D02*
G01*
X8015300Y6452539D01*
X8010220Y6437045D01*
X8004886Y6431965D01*
X7994472Y6426631D01*
X7978978Y6426631D01*
X7968564Y6431965D01*
X7963484Y6437045D01*
X7958150Y6452539D01*
X7958150Y6499275D01*
X8015300Y6361099D02*
G01*
X8010220Y6371513D01*
X7999806Y6381927D01*
X7989392Y6387261D01*
X7973644Y6392341D01*
X7947736Y6392341D01*
X7932242Y6387261D01*
X7921828Y6381927D01*
X7911414Y6371513D01*
X7906334Y6361099D01*
X7906334Y6340525D01*
X7911414Y6330111D01*
X7921828Y6319697D01*
X7932242Y6314363D01*
X7947736Y6309283D01*
X7973644Y6309283D01*
X7989392Y6314363D01*
X7999806Y6319697D01*
X8010220Y6330111D01*
X8015300Y6340525D01*
X8015300Y6361099D01*
X7999806Y6202095D02*
G01*
X8010220Y6212509D01*
X8015300Y6228257D01*
X8015300Y6249085D01*
X8010220Y6264579D01*
X7999806Y6274993D01*
X7989392Y6274993D01*
X7978978Y6269659D01*
X7973644Y6264579D01*
X7968564Y6254165D01*
X7958150Y6222923D01*
X7953070Y6212509D01*
X7947736Y6207429D01*
X7937322Y6202095D01*
X7921828Y6202095D01*
X7911414Y6212509D01*
X7906334Y6228257D01*
X7906334Y6249085D01*
X7911414Y6264579D01*
X7921828Y6274993D01*
X8115300Y1399870D02*
G01*
X8006334Y1399870D01*
X8115300Y1399870D02*
G01*
X8115300Y1353134D01*
X8110220Y1337640D01*
X8104886Y1332560D01*
X8094472Y1327226D01*
X8078977Y1327226D01*
X8068563Y1332560D01*
X8063484Y1337640D01*
X8058150Y1353134D01*
X8058150Y1399870D01*
X8115300Y1251280D02*
G01*
X8006334Y1292936D01*
X8115300Y1251280D02*
G01*
X8006334Y1209878D01*
X8042656Y1277442D02*
G01*
X8042656Y1225372D01*
X8115300Y1175588D02*
G01*
X8006334Y1175588D01*
X8115300Y1141298D02*
G01*
X8006334Y1141298D01*
X8115300Y1141298D02*
G01*
X8115300Y1094562D01*
X8110220Y1078814D01*
X8104886Y1073734D01*
X8094472Y1068400D01*
X8084058Y1068400D01*
X8073643Y1073734D01*
X8068563Y1078814D01*
X8063484Y1094562D01*
X8063484Y1141298D01*
X8063484Y1104976D02*
G01*
X8006334Y1068400D01*
X8094472Y1034110D02*
G01*
X8099806Y1023950D01*
X8115300Y1008202D01*
X8006334Y1008202D01*
X7969758Y973912D02*
G01*
X7969758Y880440D01*
X8115300Y846150D02*
G01*
X8006334Y846150D01*
X8115300Y846150D02*
G01*
X8006334Y773506D01*
X8115300Y773506D02*
G01*
X8006334Y773506D01*
X8115300Y739216D02*
G01*
X8006334Y739216D01*
X8115300Y739216D02*
G01*
X8115300Y671652D01*
X8063484Y739216D02*
G01*
X8063484Y697560D01*
X8006334Y739216D02*
G01*
X8006334Y671652D01*
X8089391Y559384D02*
G01*
X8099806Y564464D01*
X8110220Y574878D01*
X8115300Y585292D01*
X8115300Y606120D01*
X8110220Y616534D01*
X8099806Y626948D01*
X8089391Y632028D01*
X8073643Y637362D01*
X8047736Y637362D01*
X8032241Y632028D01*
X8021827Y626948D01*
X8011413Y616534D01*
X8006334Y606120D01*
X8006334Y585292D01*
X8011413Y574878D01*
X8021827Y564464D01*
X8032241Y559384D01*
X8047736Y559384D01*
X8047736Y585292D02*
G01*
X8047736Y559384D01*
X8115300Y2499868D02*
G01*
X8006334Y2499868D01*
X8115300Y2499868D02*
G01*
X8115300Y2453131D01*
X8110220Y2437637D01*
X8104886Y2432557D01*
X8094472Y2427223D01*
X8078977Y2427223D01*
X8068563Y2432557D01*
X8063484Y2437637D01*
X8058150Y2453131D01*
X8058150Y2499868D01*
X8115300Y2351278D02*
G01*
X8006334Y2392934D01*
X8115300Y2351278D02*
G01*
X8006334Y2309876D01*
X8042656Y2377439D02*
G01*
X8042656Y2325370D01*
X8115300Y2275586D02*
G01*
X8006334Y2275586D01*
X8115300Y2241295D02*
G01*
X8006334Y2241295D01*
X8115300Y2241295D02*
G01*
X8115300Y2194560D01*
X8110220Y2178812D01*
X8104886Y2173731D01*
X8094472Y2168397D01*
X8084058Y2168397D01*
X8073643Y2173731D01*
X8068563Y2178812D01*
X8063484Y2194560D01*
X8063484Y2241295D01*
X8063484Y2204973D02*
G01*
X8006334Y2168397D01*
X8094472Y2134107D02*
G01*
X8099806Y2123947D01*
X8115300Y2108200D01*
X8006334Y2108200D01*
X7969758Y2073910D02*
G01*
X7969758Y1980437D01*
X8115300Y1946147D02*
G01*
X8006334Y1946147D01*
X8115300Y1946147D02*
G01*
X8115300Y1899412D01*
X8110220Y1883918D01*
X8104886Y1878584D01*
X8094472Y1873504D01*
X8078977Y1873504D01*
X8068563Y1878584D01*
X8063484Y1883918D01*
X8058150Y1899412D01*
X8058150Y1946147D01*
X8115300Y1807971D02*
G01*
X8110220Y1818386D01*
X8099806Y1828800D01*
X8089391Y1833879D01*
X8073643Y1839213D01*
X8047736Y1839213D01*
X8032241Y1833879D01*
X8021827Y1828800D01*
X8011413Y1818386D01*
X8006334Y1807971D01*
X8006334Y1787144D01*
X8011413Y1776729D01*
X8021827Y1766315D01*
X8032241Y1761236D01*
X8047736Y1755902D01*
X8073643Y1755902D01*
X8089391Y1761236D01*
X8099806Y1766315D01*
X8110220Y1776729D01*
X8115300Y1787144D01*
X8115300Y1807971D01*
X8099806Y1648968D02*
G01*
X8110220Y1659381D01*
X8115300Y1674876D01*
X8115300Y1695704D01*
X8110220Y1711197D01*
X8099806Y1721612D01*
X8089391Y1721612D01*
X8078977Y1716531D01*
X8073643Y1711197D01*
X8068563Y1701037D01*
X8058150Y1669795D01*
X8053070Y1659381D01*
X8047736Y1654047D01*
X8037322Y1648968D01*
X8021827Y1648968D01*
X8011413Y1659381D01*
X8006334Y1674876D01*
X8006334Y1695704D01*
X8011413Y1711197D01*
X8021827Y1721612D01*
X6215303Y1499870D02*
G01*
X6106337Y1499870D01*
X6215303Y1499870D02*
G01*
X6215303Y1453134D01*
X6210223Y1437639D01*
X6204889Y1432560D01*
X6194475Y1427226D01*
X6178981Y1427226D01*
X6168567Y1432560D01*
X6163487Y1437639D01*
X6158153Y1453134D01*
X6158153Y1499870D01*
X6215303Y1351279D02*
G01*
X6106337Y1392936D01*
X6215303Y1351279D02*
G01*
X6106337Y1309878D01*
X6142659Y1377442D02*
G01*
X6142659Y1325371D01*
X6215303Y1275587D02*
G01*
X6106337Y1275587D01*
X6215303Y1241297D02*
G01*
X6106337Y1241297D01*
X6215303Y1241297D02*
G01*
X6215303Y1194562D01*
X6210223Y1178813D01*
X6204889Y1173734D01*
X6194475Y1168400D01*
X6184061Y1168400D01*
X6173647Y1173734D01*
X6168567Y1178813D01*
X6163487Y1194562D01*
X6163487Y1241297D01*
X6163487Y1204976D02*
G01*
X6106337Y1168400D01*
X6189395Y1129029D02*
G01*
X6194475Y1129029D01*
X6204889Y1123950D01*
X6210223Y1118615D01*
X6215303Y1108202D01*
X6215303Y1087373D01*
X6210223Y1076960D01*
X6204889Y1071879D01*
X6194475Y1066800D01*
X6184061Y1066800D01*
X6173647Y1071879D01*
X6158153Y1082294D01*
X6106337Y1134110D01*
X6106337Y1061465D01*
X6069761Y1027176D02*
G01*
X6069761Y933704D01*
X6215303Y899413D02*
G01*
X6106337Y899413D01*
X6215303Y899413D02*
G01*
X6106337Y826770D01*
X6215303Y826770D02*
G01*
X6106337Y826770D01*
X6215303Y792479D02*
G01*
X6106337Y792479D01*
X6215303Y792479D02*
G01*
X6215303Y724915D01*
X6163487Y792479D02*
G01*
X6163487Y750823D01*
X6106337Y792479D02*
G01*
X6106337Y724915D01*
X6189395Y612647D02*
G01*
X6199809Y617728D01*
X6210223Y628142D01*
X6215303Y638555D01*
X6215303Y659384D01*
X6210223Y669797D01*
X6199809Y680212D01*
X6189395Y685292D01*
X6173647Y690626D01*
X6147739Y690626D01*
X6132245Y685292D01*
X6121831Y680212D01*
X6111417Y669797D01*
X6106337Y659384D01*
X6106337Y638555D01*
X6111417Y628142D01*
X6121831Y617728D01*
X6132245Y612647D01*
X6147739Y612647D01*
X6147739Y638555D02*
G01*
X6147739Y612647D01*
X6215303Y2799867D02*
G01*
X6106337Y2799867D01*
X6215303Y2799867D02*
G01*
X6215303Y2753131D01*
X6210223Y2737637D01*
X6204889Y2732557D01*
X6194475Y2727223D01*
X6178981Y2727223D01*
X6168567Y2732557D01*
X6163487Y2737637D01*
X6158153Y2753131D01*
X6158153Y2799867D01*
X6215303Y2651277D02*
G01*
X6106337Y2692933D01*
X6215303Y2651277D02*
G01*
X6106337Y2609875D01*
X6142659Y2677439D02*
G01*
X6142659Y2625369D01*
X6215303Y2575585D02*
G01*
X6106337Y2575585D01*
X6215303Y2541295D02*
G01*
X6106337Y2541295D01*
X6215303Y2541295D02*
G01*
X6215303Y2494559D01*
X6210223Y2478811D01*
X6204889Y2473731D01*
X6194475Y2468397D01*
X6184061Y2468397D01*
X6173647Y2473731D01*
X6168567Y2478811D01*
X6163487Y2494559D01*
X6163487Y2541295D01*
X6163487Y2504973D02*
G01*
X6106337Y2468397D01*
X6189395Y2429027D02*
G01*
X6194475Y2429027D01*
X6204889Y2423947D01*
X6210223Y2418613D01*
X6215303Y2408199D01*
X6215303Y2387371D01*
X6210223Y2376957D01*
X6204889Y2371877D01*
X6194475Y2366797D01*
X6184061Y2366797D01*
X6173647Y2371877D01*
X6158153Y2382291D01*
X6106337Y2434107D01*
X6106337Y2361463D01*
X6069761Y2327173D02*
G01*
X6069761Y2233701D01*
X6215303Y2199411D02*
G01*
X6106337Y2199411D01*
X6215303Y2199411D02*
G01*
X6215303Y2152675D01*
X6210223Y2136927D01*
X6204889Y2131847D01*
X6194475Y2126767D01*
X6178981Y2126767D01*
X6168567Y2131847D01*
X6163487Y2136927D01*
X6158153Y2152675D01*
X6158153Y2199411D01*
X6215303Y2061235D02*
G01*
X6210223Y2071649D01*
X6199809Y2082063D01*
X6189395Y2087143D01*
X6173647Y2092477D01*
X6147739Y2092477D01*
X6132245Y2087143D01*
X6121831Y2082063D01*
X6111417Y2071649D01*
X6106337Y2061235D01*
X6106337Y2040407D01*
X6111417Y2029993D01*
X6121831Y2019579D01*
X6132245Y2014499D01*
X6147739Y2009165D01*
X6173647Y2009165D01*
X6189395Y2014499D01*
X6199809Y2019579D01*
X6210223Y2029993D01*
X6215303Y2040407D01*
X6215303Y2061235D01*
X6199809Y1902231D02*
G01*
X6210223Y1912645D01*
X6215303Y1928139D01*
X6215303Y1948967D01*
X6210223Y1964461D01*
X6199809Y1974875D01*
X6189395Y1974875D01*
X6178981Y1969795D01*
X6173647Y1964461D01*
X6168567Y1954047D01*
X6158153Y1923059D01*
X6153073Y1912645D01*
X6147739Y1907311D01*
X6137325Y1902231D01*
X6121831Y1902231D01*
X6111417Y1912645D01*
X6106337Y1928139D01*
X6106337Y1948967D01*
X6111417Y1964461D01*
X6121831Y1974875D01*
X4215307Y1599869D02*
G01*
X4106341Y1599869D01*
X4215307Y1599869D02*
G01*
X4215307Y1553133D01*
X4210227Y1537639D01*
X4204893Y1532559D01*
X4194479Y1527225D01*
X4178985Y1527225D01*
X4168571Y1532559D01*
X4163491Y1537639D01*
X4158157Y1553133D01*
X4158157Y1599869D01*
X4215307Y1451279D02*
G01*
X4106341Y1492935D01*
X4215307Y1451279D02*
G01*
X4106341Y1409877D01*
X4142663Y1477441D02*
G01*
X4142663Y1425371D01*
X4215307Y1375587D02*
G01*
X4106341Y1375587D01*
X4215307Y1341297D02*
G01*
X4106341Y1341297D01*
X4215307Y1341297D02*
G01*
X4215307Y1294561D01*
X4210227Y1278813D01*
X4204893Y1273733D01*
X4194479Y1268399D01*
X4184065Y1268399D01*
X4173651Y1273733D01*
X4168571Y1278813D01*
X4163491Y1294561D01*
X4163491Y1341297D01*
X4163491Y1304975D02*
G01*
X4106341Y1268399D01*
X4215307Y1223949D02*
G01*
X4215307Y1166799D01*
X4173651Y1197787D01*
X4173651Y1182293D01*
X4168571Y1171879D01*
X4163491Y1166799D01*
X4147743Y1161465D01*
X4137329Y1161465D01*
X4121835Y1166799D01*
X4111421Y1176959D01*
X4106341Y1192707D01*
X4106341Y1208201D01*
X4111421Y1223949D01*
X4116501Y1229029D01*
X4126915Y1234109D01*
X4069765Y1127175D02*
G01*
X4069765Y1033703D01*
X4215307Y999413D02*
G01*
X4106341Y999413D01*
X4215307Y999413D02*
G01*
X4106341Y926769D01*
X4215307Y926769D02*
G01*
X4106341Y926769D01*
X4215307Y892479D02*
G01*
X4106341Y892479D01*
X4215307Y892479D02*
G01*
X4215307Y824915D01*
X4163491Y892479D02*
G01*
X4163491Y850823D01*
X4106341Y892479D02*
G01*
X4106341Y824915D01*
X4189399Y712647D02*
G01*
X4199813Y717727D01*
X4210227Y728141D01*
X4215307Y738555D01*
X4215307Y759383D01*
X4210227Y769797D01*
X4199813Y780211D01*
X4189399Y785291D01*
X4173651Y790625D01*
X4147743Y790625D01*
X4132249Y785291D01*
X4121835Y780211D01*
X4111421Y769797D01*
X4106341Y759383D01*
X4106341Y738555D01*
X4111421Y728141D01*
X4121835Y717727D01*
X4132249Y712647D01*
X4147743Y712647D01*
X4147743Y738555D02*
G01*
X4147743Y712647D01*
X4215307Y2799867D02*
G01*
X4106341Y2799867D01*
X4215307Y2799867D02*
G01*
X4215307Y2753131D01*
X4210227Y2737637D01*
X4204893Y2732557D01*
X4194479Y2727223D01*
X4178985Y2727223D01*
X4168571Y2732557D01*
X4163491Y2737637D01*
X4158157Y2753131D01*
X4158157Y2799867D01*
X4215307Y2651277D02*
G01*
X4106341Y2692933D01*
X4215307Y2651277D02*
G01*
X4106341Y2609875D01*
X4142663Y2677439D02*
G01*
X4142663Y2625369D01*
X4215307Y2575585D02*
G01*
X4106341Y2575585D01*
X4215307Y2541295D02*
G01*
X4106341Y2541295D01*
X4215307Y2541295D02*
G01*
X4215307Y2494559D01*
X4210227Y2478811D01*
X4204893Y2473731D01*
X4194479Y2468397D01*
X4184065Y2468397D01*
X4173651Y2473731D01*
X4168571Y2478811D01*
X4163491Y2494559D01*
X4163491Y2541295D01*
X4163491Y2504973D02*
G01*
X4106341Y2468397D01*
X4215307Y2423947D02*
G01*
X4215307Y2366797D01*
X4173651Y2397785D01*
X4173651Y2382291D01*
X4168571Y2371877D01*
X4163491Y2366797D01*
X4147743Y2361463D01*
X4137329Y2361463D01*
X4121835Y2366797D01*
X4111421Y2376957D01*
X4106341Y2392705D01*
X4106341Y2408199D01*
X4111421Y2423947D01*
X4116501Y2429027D01*
X4126915Y2434107D01*
X4069765Y2327173D02*
G01*
X4069765Y2233701D01*
X4215307Y2199411D02*
G01*
X4106341Y2199411D01*
X4215307Y2199411D02*
G01*
X4215307Y2152675D01*
X4210227Y2136927D01*
X4204893Y2131847D01*
X4194479Y2126767D01*
X4178985Y2126767D01*
X4168571Y2131847D01*
X4163491Y2136927D01*
X4158157Y2152675D01*
X4158157Y2199411D01*
X4215307Y2061235D02*
G01*
X4210227Y2071649D01*
X4199813Y2082063D01*
X4189399Y2087143D01*
X4173651Y2092477D01*
X4147743Y2092477D01*
X4132249Y2087143D01*
X4121835Y2082063D01*
X4111421Y2071649D01*
X4106341Y2061235D01*
X4106341Y2040407D01*
X4111421Y2029993D01*
X4121835Y2019579D01*
X4132249Y2014499D01*
X4147743Y2009165D01*
X4173651Y2009165D01*
X4189399Y2014499D01*
X4199813Y2019579D01*
X4210227Y2029993D01*
X4215307Y2040407D01*
X4215307Y2061235D01*
X4199813Y1902231D02*
G01*
X4210227Y1912645D01*
X4215307Y1928139D01*
X4215307Y1948967D01*
X4210227Y1964461D01*
X4199813Y1974875D01*
X4189399Y1974875D01*
X4178985Y1969795D01*
X4173651Y1964461D01*
X4168571Y1954047D01*
X4158157Y1923059D01*
X4153077Y1912645D01*
X4147743Y1907311D01*
X4137329Y1902231D01*
X4121835Y1902231D01*
X4111421Y1912645D01*
X4106341Y1928139D01*
X4106341Y1948967D01*
X4111421Y1964461D01*
X4121835Y1974875D01*
X2615311Y1199870D02*
G01*
X2506345Y1199870D01*
X2615311Y1199870D02*
G01*
X2615311Y1153134D01*
X2610231Y1137640D01*
X2604897Y1132560D01*
X2594483Y1127226D01*
X2578988Y1127226D01*
X2568575Y1132560D01*
X2563495Y1137640D01*
X2558161Y1153134D01*
X2558161Y1199870D01*
X2615311Y1051280D02*
G01*
X2506345Y1092936D01*
X2615311Y1051280D02*
G01*
X2506345Y1009878D01*
X2542666Y1077442D02*
G01*
X2542666Y1025372D01*
X2615311Y975588D02*
G01*
X2506345Y975588D01*
X2615311Y941298D02*
G01*
X2506345Y941298D01*
X2615311Y941298D02*
G01*
X2615311Y894562D01*
X2610231Y878814D01*
X2604897Y873734D01*
X2594483Y868400D01*
X2584068Y868400D01*
X2573654Y873734D01*
X2568575Y878814D01*
X2563495Y894562D01*
X2563495Y941298D01*
X2563495Y904976D02*
G01*
X2506345Y868400D01*
X2615311Y782294D02*
G01*
X2542666Y834110D01*
X2542666Y756386D01*
X2615311Y782294D02*
G01*
X2506345Y782294D01*
X2469768Y722096D02*
G01*
X2469768Y628370D01*
X2615311Y594080D02*
G01*
X2506345Y594080D01*
X2615311Y594080D02*
G01*
X2506345Y521436D01*
X2615311Y521436D02*
G01*
X2506345Y521436D01*
X2615311Y487146D02*
G01*
X2506345Y487146D01*
X2615311Y487146D02*
G01*
X2615311Y419582D01*
X2563495Y487146D02*
G01*
X2563495Y445490D01*
X2506345Y487146D02*
G01*
X2506345Y419582D01*
X2589402Y307314D02*
G01*
X2599816Y312648D01*
X2610231Y323062D01*
X2615311Y333476D01*
X2615311Y354050D01*
X2610231Y364464D01*
X2599816Y374878D01*
X2589402Y380212D01*
X2573654Y385292D01*
X2547747Y385292D01*
X2532252Y380212D01*
X2521838Y374878D01*
X2511425Y364464D01*
X2506345Y354050D01*
X2506345Y333476D01*
X2511425Y323062D01*
X2521838Y312648D01*
X2532252Y307314D01*
X2547747Y307314D01*
X2547747Y333476D02*
G01*
X2547747Y307314D01*
X2615311Y2399868D02*
G01*
X2506345Y2399868D01*
X2615311Y2399868D02*
G01*
X2615311Y2353132D01*
X2610231Y2337638D01*
X2604897Y2332558D01*
X2594483Y2327224D01*
X2578988Y2327224D01*
X2568575Y2332558D01*
X2563495Y2337638D01*
X2558161Y2353132D01*
X2558161Y2399868D01*
X2615311Y2251278D02*
G01*
X2506345Y2292934D01*
X2615311Y2251278D02*
G01*
X2506345Y2209876D01*
X2542666Y2277440D02*
G01*
X2542666Y2225370D01*
X2615311Y2175586D02*
G01*
X2506345Y2175586D01*
X2615311Y2141296D02*
G01*
X2506345Y2141296D01*
X2615311Y2141296D02*
G01*
X2615311Y2094560D01*
X2610231Y2078812D01*
X2604897Y2073732D01*
X2594483Y2068398D01*
X2584068Y2068398D01*
X2573654Y2073732D01*
X2568575Y2078812D01*
X2563495Y2094560D01*
X2563495Y2141296D01*
X2563495Y2104974D02*
G01*
X2506345Y2068398D01*
X2615311Y1982292D02*
G01*
X2542666Y2034108D01*
X2542666Y1956384D01*
X2615311Y1982292D02*
G01*
X2506345Y1982292D01*
X2469768Y1922094D02*
G01*
X2469768Y1828368D01*
X2615311Y1794078D02*
G01*
X2506345Y1794078D01*
X2615311Y1794078D02*
G01*
X2615311Y1747342D01*
X2610231Y1731848D01*
X2604897Y1726768D01*
X2594483Y1721434D01*
X2578988Y1721434D01*
X2568575Y1726768D01*
X2563495Y1731848D01*
X2558161Y1747342D01*
X2558161Y1794078D01*
X2615311Y1655902D02*
G01*
X2610231Y1666316D01*
X2599816Y1676730D01*
X2589402Y1682064D01*
X2573654Y1687144D01*
X2547747Y1687144D01*
X2532252Y1682064D01*
X2521838Y1676730D01*
X2511425Y1666316D01*
X2506345Y1655902D01*
X2506345Y1635328D01*
X2511425Y1624914D01*
X2521838Y1614500D01*
X2532252Y1609166D01*
X2547747Y1604086D01*
X2573654Y1604086D01*
X2589402Y1609166D01*
X2599816Y1614500D01*
X2610231Y1624914D01*
X2615311Y1635328D01*
X2615311Y1655902D01*
X2599816Y1496898D02*
G01*
X2610231Y1507312D01*
X2615311Y1523060D01*
X2615311Y1543888D01*
X2610231Y1559382D01*
X2599816Y1569796D01*
X2589402Y1569796D01*
X2578988Y1564462D01*
X2573654Y1559382D01*
X2568575Y1548968D01*
X2558161Y1517726D01*
X2553081Y1507312D01*
X2547747Y1502232D01*
X2537333Y1496898D01*
X2521838Y1496898D01*
X2511425Y1507312D01*
X2506345Y1523060D01*
X2506345Y1543888D01*
X2511425Y1559382D01*
X2521838Y1569796D01*
D13*
X11759971Y1699996D02*
G01*
X11759971Y5499988D01*
X10839983Y1969998D02*
G01*
X10839983Y5249976D01*
X10979988Y5499988D02*
G01*
X11590045Y5620054D01*
X10980038Y1715109D02*
G01*
X11590096Y1595043D01*
X11659895Y5409996D02*
G01*
X11659971Y1759991D01*
X11599976Y1689988D01*
X11219967Y1769998D01*
X10929975Y1849983D01*
X10929975Y5379999D01*
X11199977Y5439994D01*
X11590045Y5519978D01*
X11659895Y5449874D01*
X11659895Y5409996D01*
X11924969Y949985D02*
G01*
X10674984Y949985D01*
X11924969Y949985D02*
G01*
X11924969Y6249974D01*
X10674984Y6249974D02*
G01*
X11924969Y6249974D01*
X10674984Y6249974D02*
G01*
X10674984Y949985D01*
G75*
G01*
X11589969Y5619979D02*
G02*
X11759971Y5509997I45844J-115519D01*
G75*
G01*
X10839831Y5249774D02*
G02*
X10979836Y5499786I223028J39313D01*
G75*
G01*
X11590025Y1595125D02*
G03*
X11760027Y1705107I45843J115518D01*
G75*
G01*
X10839887Y1965330D02*
G03*
X10979892Y1715318I223028J-39313D01*
M02*
