G04 Layer: TopLayer*
G04 EasyEDA v6.5.51, 2026-01-14 15:08:39*
G04 dde8d36dd7f6405bbf5d2bde1aba3d06,1eba0ef7a20a4348ba21f928fdb5677a,10*
G04 Gerber Generator version 0.2*
G04 Scale: 100 percent, Rotated: No, Reflected: No *
G04 Dimensions in millimeters *
G04 leading zeros omitted , absolute positions ,4 integer and 5 decimal *
%FSLAX45Y45*%
%MOMM*%

%ADD10C,0.3000*%
%ADD11C,0.2040*%
%ADD12C,1.8000*%
%ADD13C,1.8796*%
%ADD14C,3.3020*%
%ADD15C,0.0111*%

%LPD*%
D10*
X1999995Y1999995D02*
G01*
X3972991Y3972991D01*
X9299981Y3972991D01*
X5499988Y999997D02*
G01*
X7202982Y2702991D01*
X9299981Y2702991D01*
D11*
X11157991Y4017060D02*
G01*
X9599980Y5575071D01*
X9599980Y6999986D01*
X7499984Y6999986D01*
D10*
X5499988Y999997D02*
G01*
X7202982Y2702991D01*
X9299981Y2702991D01*
X9299981Y3464991D02*
G01*
X10138054Y2626918D01*
X11157991Y2626918D01*
X9299981Y3972991D02*
G01*
X10367924Y2905048D01*
X11157991Y2905048D01*
X9299981Y4480991D02*
G01*
X10598048Y3182924D01*
X11157991Y3182924D01*
D11*
X11441963Y3877106D02*
G01*
X11099977Y3877106D01*
X9499981Y5477103D01*
X9499981Y5999987D01*
X7499984Y5999987D01*
X5499988Y6999986D02*
G01*
X7002983Y5496991D01*
X9299981Y5496991D01*
X5499988Y5999987D02*
G01*
X6256985Y5242991D01*
X9299981Y5242991D01*
D10*
X3499993Y999997D02*
G01*
X5710986Y3210991D01*
X9299981Y3210991D01*
D11*
X7499984Y999997D02*
G01*
X10503890Y999997D01*
X11441963Y1938070D01*
X3499993Y6999986D02*
G01*
X5510987Y4988991D01*
X9299983Y4988991D01*
D10*
X1499996Y6999986D02*
G01*
X4018991Y4480991D01*
X9299983Y4480991D01*
X3499993Y1999995D02*
G01*
X4964988Y3464991D01*
X9299981Y3464991D01*
X5499988Y1999995D02*
G01*
X6456984Y2956991D01*
X9299981Y2956991D01*
X11157991Y3182924D02*
G01*
X10598048Y3182924D01*
X9299981Y4480991D01*
X11441963Y3323132D02*
G01*
X10699978Y3323132D01*
X10699978Y3334994D01*
X9299981Y4734991D01*
X11441963Y3599992D02*
G01*
X10899978Y3599992D01*
X10899978Y3642995D01*
X9299981Y5242991D01*
X11157991Y3738930D02*
G01*
X11058042Y3738930D01*
X9299981Y5496991D01*
X9299981Y4226991D02*
G01*
X3272993Y4226991D01*
X1499996Y5999987D01*
X9299981Y4734991D02*
G01*
X4699990Y4734991D01*
X4699990Y4799990D01*
X3499993Y5999987D01*
X11157991Y3461054D02*
G01*
X10799978Y3461054D01*
X10799978Y3488994D01*
X9299981Y4988991D01*
X1999995Y999997D02*
G01*
X4718989Y3718991D01*
X9299981Y3718991D01*
X11157991Y2905048D02*
G01*
X10367924Y2905048D01*
X9299981Y3972991D01*
D11*
X7499984Y1999995D02*
G01*
X11087074Y1999995D01*
X11157991Y2070912D01*
D10*
X11441963Y2768904D02*
G01*
X10250068Y2768904D01*
X9299981Y3718991D01*
X11157991Y2626918D02*
G01*
X10099979Y2626918D01*
X10099979Y2664993D01*
X9299981Y3464991D01*
X9299981Y3210991D02*
G01*
X9299981Y3199993D01*
X9999979Y2499995D01*
X11441963Y2492044D02*
G01*
X9999979Y2499995D01*
X11157991Y2349042D02*
G01*
X9907930Y2349042D01*
X9299981Y2956991D01*
X11441963Y3046018D02*
G01*
X10480954Y3046018D01*
X9299981Y4226991D01*
X11441963Y2214930D02*
G01*
X9699980Y2214930D01*
X9699980Y2302992D01*
X9299981Y2702991D01*
D12*
G01*
X11441709Y5261914D03*
G01*
X11441963Y4985054D03*
G01*
X11441963Y4707940D03*
G01*
X11441963Y4431080D03*
G01*
X11441963Y4153966D03*
G01*
X11441963Y3877106D03*
G01*
X11441963Y3599992D03*
G01*
X11441963Y3323132D03*
G01*
X11441963Y3046018D03*
G01*
X11441963Y2768904D03*
G01*
X11441963Y2492044D03*
G01*
X11441963Y2214930D03*
G01*
X11441963Y1938070D03*
G01*
X11157991Y5128818D03*
G01*
X11157991Y4850942D03*
G01*
X11157991Y4573066D03*
G01*
X11157991Y4294936D03*
G01*
X11157991Y4017060D03*
G01*
X11157991Y3738930D03*
G01*
X11157991Y3461054D03*
G01*
X11157991Y3182924D03*
G01*
X11157991Y2905048D03*
G01*
X11157991Y2626918D03*
G01*
X11157991Y2349042D03*
G01*
X11157991Y2070912D03*
D13*
G01*
X9299981Y5496991D03*
G01*
X9299981Y5242991D03*
G01*
X9299981Y4988991D03*
G01*
X9299981Y4734991D03*
G01*
X9299981Y4480991D03*
G01*
X9299981Y4226991D03*
G01*
X9299981Y3972991D03*
G01*
X9299981Y3718991D03*
G01*
X9299981Y3464991D03*
G01*
X9299981Y3210991D03*
G01*
X9299981Y2956991D03*
G01*
X9299981Y2702991D03*
D14*
G01*
X1499996Y5999987D03*
G01*
X1499996Y6999986D03*
G01*
X3499993Y5999987D03*
G01*
X3499993Y6999986D03*
G01*
X5499988Y5999987D03*
G01*
X5499988Y6999986D03*
G01*
X7499984Y5999987D03*
G01*
X7499984Y6999986D03*
G01*
X7499984Y999997D03*
G01*
X7499984Y1999995D03*
G01*
X5499988Y999997D03*
G01*
X5499988Y1999995D03*
G01*
X3499993Y999997D03*
G01*
X3499993Y1999995D03*
G01*
X1999995Y999997D03*
G01*
X1999995Y1999995D03*
M02*
