G04 Layer: BottomLayer*
G04 EasyEDA v6.5.51, 2026-01-14 15:08:39*
G04 dde8d36dd7f6405bbf5d2bde1aba3d06,1eba0ef7a20a4348ba21f928fdb5677a,10*
G04 Gerber Generator version 0.2*
G04 Scale: 100 percent, Rotated: No, Reflected: No *
G04 Dimensions in millimeters *
G04 leading zeros omitted , absolute positions ,4 integer and 5 decimal *
%FSLAX45Y45*%
%MOMM*%

%ADD10C,0.2040*%
%ADD11C,1.8000*%
%ADD12C,1.8796*%
%ADD13C,3.3020*%
%ADD14C,0.0123*%

%LPD*%
G36*
X36068Y25908D02*
G01*
X32156Y26670D01*
X28905Y28905D01*
X26670Y32156D01*
X25908Y36068D01*
X25908Y7963916D01*
X26670Y7967827D01*
X28905Y7971078D01*
X32156Y7973314D01*
X36068Y7974075D01*
X11963908Y7974075D01*
X11967819Y7973314D01*
X11971070Y7971078D01*
X11973306Y7967827D01*
X11974068Y7963916D01*
X11974068Y36068D01*
X11973306Y32156D01*
X11971070Y28905D01*
X11967819Y26670D01*
X11963908Y25908D01*
G37*

%LPC*%
G36*
X504545Y324154D02*
G01*
X522579Y325577D01*
X540410Y328828D01*
X557784Y333857D01*
X574548Y340715D01*
X590550Y349199D01*
X605586Y359308D01*
X619455Y370890D01*
X632104Y383895D01*
X643382Y398068D01*
X653084Y413359D01*
X661162Y429564D01*
X667562Y446532D01*
X672185Y464007D01*
X674979Y481888D01*
X675894Y499973D01*
X674979Y518109D01*
X672185Y535990D01*
X667562Y553466D01*
X661162Y570433D01*
X653084Y586638D01*
X643382Y601929D01*
X632104Y616102D01*
X619455Y629107D01*
X605586Y640689D01*
X590550Y650798D01*
X574548Y659282D01*
X557784Y666140D01*
X540410Y671169D01*
X522579Y674420D01*
X504545Y675843D01*
X486409Y675386D01*
X468477Y673049D01*
X450850Y668883D01*
X433730Y662940D01*
X417322Y655269D01*
X401828Y645922D01*
X387299Y635050D01*
X374040Y622757D01*
X362051Y609142D01*
X351586Y594410D01*
X342646Y578662D01*
X335432Y562051D01*
X329895Y544779D01*
X326186Y527050D01*
X324358Y509066D01*
X324358Y490931D01*
X326186Y472948D01*
X329895Y455218D01*
X335432Y437946D01*
X342646Y421335D01*
X351586Y405587D01*
X362051Y390855D01*
X374040Y377240D01*
X387299Y364947D01*
X401828Y354076D01*
X417322Y344728D01*
X433730Y337058D01*
X450850Y331114D01*
X468477Y326948D01*
X486409Y324612D01*
G37*
G36*
X7490459Y809244D02*
G01*
X7509509Y809244D01*
X7528458Y811123D01*
X7547102Y814933D01*
X7565288Y820521D01*
X7582865Y827938D01*
X7599578Y837031D01*
X7615326Y847750D01*
X7629906Y859993D01*
X7643164Y873607D01*
X7655052Y888492D01*
X7665415Y904494D01*
X7674102Y921461D01*
X7681010Y939190D01*
X7686192Y957478D01*
X7689494Y976223D01*
X7690916Y995222D01*
X7690459Y1014272D01*
X7688072Y1033170D01*
X7683855Y1051712D01*
X7677759Y1069797D01*
X7669936Y1087120D01*
X7660436Y1103630D01*
X7649311Y1119073D01*
X7636713Y1133348D01*
X7622743Y1146302D01*
X7607553Y1157782D01*
X7591348Y1167739D01*
X7574178Y1176020D01*
X7556296Y1182522D01*
X7537805Y1187196D01*
X7519009Y1190040D01*
X7500010Y1191006D01*
X7480960Y1190040D01*
X7462164Y1187196D01*
X7443673Y1182522D01*
X7425791Y1176020D01*
X7408621Y1167739D01*
X7392416Y1157782D01*
X7377226Y1146302D01*
X7363256Y1133348D01*
X7350658Y1119073D01*
X7339533Y1103630D01*
X7330033Y1087120D01*
X7322210Y1069797D01*
X7316114Y1051712D01*
X7311898Y1033170D01*
X7309510Y1014272D01*
X7309053Y995222D01*
X7310475Y976223D01*
X7313777Y957478D01*
X7318959Y939190D01*
X7325868Y921461D01*
X7334554Y904494D01*
X7344918Y888492D01*
X7356805Y873607D01*
X7370064Y859993D01*
X7384643Y847750D01*
X7400391Y837031D01*
X7417104Y827938D01*
X7434681Y820521D01*
X7452868Y814933D01*
X7471511Y811123D01*
G37*
G36*
X3490468Y809244D02*
G01*
X3509518Y809244D01*
X3528466Y811123D01*
X3547110Y814933D01*
X3565296Y820521D01*
X3582873Y827938D01*
X3599586Y837031D01*
X3615334Y847750D01*
X3629914Y859993D01*
X3643172Y873607D01*
X3655060Y888492D01*
X3665423Y904494D01*
X3674110Y921461D01*
X3681018Y939190D01*
X3686200Y957478D01*
X3689502Y976223D01*
X3690924Y995222D01*
X3690467Y1014272D01*
X3688079Y1033170D01*
X3683863Y1051712D01*
X3677767Y1069797D01*
X3669944Y1087120D01*
X3660444Y1103630D01*
X3649319Y1119073D01*
X3636721Y1133348D01*
X3622751Y1146302D01*
X3607562Y1157782D01*
X3591356Y1167739D01*
X3574186Y1176020D01*
X3556304Y1182522D01*
X3537813Y1187196D01*
X3519017Y1190040D01*
X3500018Y1191006D01*
X3480968Y1190040D01*
X3462172Y1187196D01*
X3443681Y1182522D01*
X3425799Y1176020D01*
X3408629Y1167739D01*
X3392424Y1157782D01*
X3377234Y1146302D01*
X3363264Y1133348D01*
X3350666Y1119073D01*
X3339541Y1103630D01*
X3330041Y1087120D01*
X3322218Y1069797D01*
X3316122Y1051712D01*
X3311906Y1033170D01*
X3309518Y1014272D01*
X3309061Y995222D01*
X3310483Y976223D01*
X3313785Y957478D01*
X3318967Y939190D01*
X3325876Y921461D01*
X3334562Y904494D01*
X3344926Y888492D01*
X3356813Y873607D01*
X3370072Y859993D01*
X3384651Y847750D01*
X3400399Y837031D01*
X3417112Y827938D01*
X3434689Y820521D01*
X3452876Y814933D01*
X3471519Y811123D01*
G37*
G36*
X5490464Y809244D02*
G01*
X5509514Y809244D01*
X5528462Y811123D01*
X5547106Y814933D01*
X5565292Y820521D01*
X5582869Y827938D01*
X5599582Y837031D01*
X5615330Y847750D01*
X5629910Y859993D01*
X5643168Y873607D01*
X5655056Y888492D01*
X5665419Y904494D01*
X5674106Y921461D01*
X5681014Y939190D01*
X5686196Y957478D01*
X5689498Y976223D01*
X5690920Y995222D01*
X5690463Y1014272D01*
X5688076Y1033170D01*
X5683859Y1051712D01*
X5677763Y1069797D01*
X5669940Y1087120D01*
X5660440Y1103630D01*
X5649315Y1119073D01*
X5636717Y1133348D01*
X5622747Y1146302D01*
X5607558Y1157782D01*
X5591352Y1167739D01*
X5574182Y1176020D01*
X5556300Y1182522D01*
X5537809Y1187196D01*
X5519013Y1190040D01*
X5500014Y1191006D01*
X5480964Y1190040D01*
X5462168Y1187196D01*
X5443677Y1182522D01*
X5425795Y1176020D01*
X5408625Y1167739D01*
X5392420Y1157782D01*
X5377230Y1146302D01*
X5363260Y1133348D01*
X5350662Y1119073D01*
X5339537Y1103630D01*
X5330037Y1087120D01*
X5322214Y1069797D01*
X5316118Y1051712D01*
X5311902Y1033170D01*
X5309514Y1014272D01*
X5309057Y995222D01*
X5310479Y976223D01*
X5313781Y957478D01*
X5318963Y939190D01*
X5325872Y921461D01*
X5334558Y904494D01*
X5344922Y888492D01*
X5356809Y873607D01*
X5370068Y859993D01*
X5384647Y847750D01*
X5400395Y837031D01*
X5417108Y827938D01*
X5434685Y820521D01*
X5452872Y814933D01*
X5471515Y811123D01*
G37*
G36*
X1990496Y809244D02*
G01*
X2009495Y809244D01*
X2028443Y811123D01*
X2047138Y814933D01*
X2065324Y820521D01*
X2082850Y827938D01*
X2099564Y837031D01*
X2115312Y847750D01*
X2129891Y859993D01*
X2143201Y873607D01*
X2155088Y888492D01*
X2165400Y904494D01*
X2174087Y921461D01*
X2181047Y939190D01*
X2186178Y957478D01*
X2189530Y976223D01*
X2190953Y995222D01*
X2190445Y1014272D01*
X2188108Y1033170D01*
X2183841Y1051712D01*
X2177796Y1069797D01*
X2169972Y1087120D01*
X2160422Y1103630D01*
X2149297Y1119073D01*
X2136698Y1133348D01*
X2122779Y1146302D01*
X2107590Y1157782D01*
X2091334Y1167739D01*
X2074164Y1176020D01*
X2056282Y1182522D01*
X2037842Y1187196D01*
X2018995Y1190040D01*
X1999996Y1191006D01*
X1980996Y1190040D01*
X1962150Y1187196D01*
X1943709Y1182522D01*
X1925828Y1176020D01*
X1908657Y1167739D01*
X1892401Y1157782D01*
X1877212Y1146302D01*
X1863293Y1133348D01*
X1850694Y1119073D01*
X1839569Y1103630D01*
X1830019Y1087120D01*
X1822196Y1069797D01*
X1816150Y1051712D01*
X1811883Y1033170D01*
X1809546Y1014272D01*
X1809038Y995222D01*
X1810461Y976223D01*
X1813814Y957478D01*
X1818944Y939190D01*
X1825904Y921461D01*
X1834591Y904494D01*
X1844903Y888492D01*
X1856790Y873607D01*
X1870100Y859993D01*
X1884680Y847750D01*
X1900428Y837031D01*
X1917141Y827938D01*
X1934667Y820521D01*
X1952853Y814933D01*
X1971548Y811123D01*
G37*
G36*
X11304524Y1074166D02*
G01*
X11322558Y1075537D01*
X11340388Y1078788D01*
X11357762Y1083868D01*
X11374526Y1090676D01*
X11390528Y1099210D01*
X11405565Y1109319D01*
X11419433Y1120902D01*
X11432082Y1133856D01*
X11443360Y1148080D01*
X11453063Y1163370D01*
X11461140Y1179525D01*
X11467541Y1196492D01*
X11472164Y1214018D01*
X11474958Y1231900D01*
X11475872Y1249984D01*
X11474958Y1268069D01*
X11472164Y1285951D01*
X11467541Y1303477D01*
X11461140Y1320444D01*
X11453063Y1336598D01*
X11443360Y1351889D01*
X11432082Y1366113D01*
X11419433Y1379067D01*
X11405565Y1390650D01*
X11390528Y1400759D01*
X11374526Y1409293D01*
X11357762Y1416100D01*
X11340388Y1421180D01*
X11322558Y1424432D01*
X11304524Y1425803D01*
X11286388Y1425346D01*
X11268456Y1423009D01*
X11250828Y1418894D01*
X11233708Y1412900D01*
X11217300Y1405229D01*
X11201806Y1395933D01*
X11187277Y1385062D01*
X11174018Y1372768D01*
X11162030Y1359154D01*
X11151565Y1344371D01*
X11142624Y1328623D01*
X11135410Y1312011D01*
X11129873Y1294790D01*
X11126165Y1277061D01*
X11124336Y1259027D01*
X11124336Y1240942D01*
X11126165Y1222908D01*
X11129873Y1205179D01*
X11135410Y1187958D01*
X11142624Y1171346D01*
X11151565Y1155598D01*
X11162030Y1140815D01*
X11174018Y1127201D01*
X11187277Y1114907D01*
X11201806Y1104036D01*
X11217300Y1094740D01*
X11233708Y1087069D01*
X11250828Y1081074D01*
X11268456Y1076960D01*
X11286388Y1074623D01*
G37*
G36*
X7490459Y1809242D02*
G01*
X7509509Y1809242D01*
X7528458Y1811121D01*
X7547102Y1814931D01*
X7565288Y1820519D01*
X7582865Y1827936D01*
X7599578Y1837029D01*
X7615326Y1847748D01*
X7629906Y1859991D01*
X7643164Y1873605D01*
X7655052Y1888489D01*
X7665415Y1904492D01*
X7674102Y1921459D01*
X7681010Y1939188D01*
X7686192Y1957476D01*
X7689494Y1976221D01*
X7690916Y1995220D01*
X7690459Y2014270D01*
X7688072Y2033168D01*
X7683855Y2051710D01*
X7677759Y2069795D01*
X7669936Y2087118D01*
X7660436Y2103628D01*
X7649311Y2119071D01*
X7636713Y2133346D01*
X7622743Y2146300D01*
X7607553Y2157780D01*
X7591348Y2167737D01*
X7574178Y2176018D01*
X7556296Y2182520D01*
X7537805Y2187194D01*
X7519009Y2190038D01*
X7500010Y2191004D01*
X7480960Y2190038D01*
X7462164Y2187194D01*
X7443673Y2182520D01*
X7425791Y2176018D01*
X7408621Y2167737D01*
X7392416Y2157780D01*
X7377226Y2146300D01*
X7363256Y2133346D01*
X7350658Y2119071D01*
X7339533Y2103628D01*
X7330033Y2087118D01*
X7322210Y2069795D01*
X7316114Y2051710D01*
X7311898Y2033168D01*
X7309510Y2014270D01*
X7309053Y1995220D01*
X7310475Y1976221D01*
X7313777Y1957476D01*
X7318959Y1939188D01*
X7325868Y1921459D01*
X7334554Y1904492D01*
X7344918Y1888489D01*
X7356805Y1873605D01*
X7370064Y1859991D01*
X7384643Y1847748D01*
X7400391Y1837029D01*
X7417104Y1827936D01*
X7434681Y1820519D01*
X7452868Y1814931D01*
X7471511Y1811121D01*
G37*
G36*
X5490464Y1809242D02*
G01*
X5509514Y1809242D01*
X5528462Y1811121D01*
X5547106Y1814931D01*
X5565292Y1820519D01*
X5582869Y1827936D01*
X5599582Y1837029D01*
X5615330Y1847748D01*
X5629910Y1859991D01*
X5643168Y1873605D01*
X5655056Y1888489D01*
X5665419Y1904492D01*
X5674106Y1921459D01*
X5681014Y1939188D01*
X5686196Y1957476D01*
X5689498Y1976221D01*
X5690920Y1995220D01*
X5690463Y2014270D01*
X5688076Y2033168D01*
X5683859Y2051710D01*
X5677763Y2069795D01*
X5669940Y2087118D01*
X5660440Y2103628D01*
X5649315Y2119071D01*
X5636717Y2133346D01*
X5622747Y2146300D01*
X5607558Y2157780D01*
X5591352Y2167737D01*
X5574182Y2176018D01*
X5556300Y2182520D01*
X5537809Y2187194D01*
X5519013Y2190038D01*
X5500014Y2191004D01*
X5480964Y2190038D01*
X5462168Y2187194D01*
X5443677Y2182520D01*
X5425795Y2176018D01*
X5408625Y2167737D01*
X5392420Y2157780D01*
X5377230Y2146300D01*
X5363260Y2133346D01*
X5350662Y2119071D01*
X5339537Y2103628D01*
X5330037Y2087118D01*
X5322214Y2069795D01*
X5316118Y2051710D01*
X5311902Y2033168D01*
X5309514Y2014270D01*
X5309057Y1995220D01*
X5310479Y1976221D01*
X5313781Y1957476D01*
X5318963Y1939188D01*
X5325872Y1921459D01*
X5334558Y1904492D01*
X5344922Y1888489D01*
X5356809Y1873605D01*
X5370068Y1859991D01*
X5384647Y1847748D01*
X5400395Y1837029D01*
X5417108Y1827936D01*
X5434685Y1820519D01*
X5452872Y1814931D01*
X5471515Y1811121D01*
G37*
G36*
X3490468Y1809242D02*
G01*
X3509518Y1809242D01*
X3528466Y1811121D01*
X3547110Y1814931D01*
X3565296Y1820519D01*
X3582873Y1827936D01*
X3599586Y1837029D01*
X3615334Y1847748D01*
X3629914Y1859991D01*
X3643172Y1873605D01*
X3655060Y1888489D01*
X3665423Y1904492D01*
X3674110Y1921459D01*
X3681018Y1939188D01*
X3686200Y1957476D01*
X3689502Y1976221D01*
X3690924Y1995220D01*
X3690467Y2014270D01*
X3688079Y2033168D01*
X3683863Y2051710D01*
X3677767Y2069795D01*
X3669944Y2087118D01*
X3660444Y2103628D01*
X3649319Y2119071D01*
X3636721Y2133346D01*
X3622751Y2146300D01*
X3607562Y2157780D01*
X3591356Y2167737D01*
X3574186Y2176018D01*
X3556304Y2182520D01*
X3537813Y2187194D01*
X3519017Y2190038D01*
X3500018Y2191004D01*
X3480968Y2190038D01*
X3462172Y2187194D01*
X3443681Y2182520D01*
X3425799Y2176018D01*
X3408629Y2167737D01*
X3392424Y2157780D01*
X3377234Y2146300D01*
X3363264Y2133346D01*
X3350666Y2119071D01*
X3339541Y2103628D01*
X3330041Y2087118D01*
X3322218Y2069795D01*
X3316122Y2051710D01*
X3311906Y2033168D01*
X3309518Y2014270D01*
X3309061Y1995220D01*
X3310483Y1976221D01*
X3313785Y1957476D01*
X3318967Y1939188D01*
X3325876Y1921459D01*
X3334562Y1904492D01*
X3344926Y1888489D01*
X3356813Y1873605D01*
X3370072Y1859991D01*
X3384651Y1847748D01*
X3400399Y1837029D01*
X3417112Y1827936D01*
X3434689Y1820519D01*
X3452876Y1814931D01*
X3471519Y1811121D01*
G37*
G36*
X1990496Y1809242D02*
G01*
X2009495Y1809242D01*
X2028443Y1811121D01*
X2047138Y1814931D01*
X2065324Y1820519D01*
X2082850Y1827936D01*
X2099564Y1837029D01*
X2115312Y1847748D01*
X2129891Y1859991D01*
X2143201Y1873605D01*
X2155088Y1888489D01*
X2165400Y1904492D01*
X2174087Y1921459D01*
X2181047Y1939188D01*
X2186178Y1957476D01*
X2189530Y1976221D01*
X2190953Y1995220D01*
X2190445Y2014270D01*
X2188108Y2033168D01*
X2183841Y2051710D01*
X2177796Y2069795D01*
X2169972Y2087118D01*
X2160422Y2103628D01*
X2149297Y2119071D01*
X2136698Y2133346D01*
X2122779Y2146300D01*
X2107590Y2157780D01*
X2091334Y2167737D01*
X2074164Y2176018D01*
X2056282Y2182520D01*
X2037842Y2187194D01*
X2018995Y2190038D01*
X1999996Y2191004D01*
X1980996Y2190038D01*
X1962150Y2187194D01*
X1943709Y2182520D01*
X1925828Y2176018D01*
X1908657Y2167737D01*
X1892401Y2157780D01*
X1877212Y2146300D01*
X1863293Y2133346D01*
X1850694Y2119071D01*
X1839569Y2103628D01*
X1830019Y2087118D01*
X1822196Y2069795D01*
X1816150Y2051710D01*
X1811883Y2033168D01*
X1809546Y2014270D01*
X1809038Y1995220D01*
X1810461Y1976221D01*
X1813814Y1957476D01*
X1818944Y1939188D01*
X1825904Y1921459D01*
X1834591Y1904492D01*
X1844903Y1888489D01*
X1856790Y1873605D01*
X1870100Y1859991D01*
X1884680Y1847748D01*
X1900428Y1837029D01*
X1917141Y1827936D01*
X1934667Y1820519D01*
X1952853Y1814931D01*
X1971548Y1811121D01*
G37*
G36*
X11441988Y1822196D02*
G01*
X11456466Y1823110D01*
X11470792Y1825802D01*
X11484610Y1830324D01*
X11497818Y1836521D01*
X11510060Y1844293D01*
X11521287Y1853590D01*
X11531244Y1864207D01*
X11539829Y1875993D01*
X11546840Y1888743D01*
X11552174Y1902256D01*
X11555780Y1916379D01*
X11557609Y1930806D01*
X11557609Y1945335D01*
X11555780Y1959762D01*
X11552174Y1973884D01*
X11546840Y1987397D01*
X11539829Y2000148D01*
X11531244Y2011934D01*
X11521287Y2022551D01*
X11510060Y2031847D01*
X11497818Y2039620D01*
X11484610Y2045817D01*
X11470792Y2050338D01*
X11456466Y2053031D01*
X11441988Y2053945D01*
X11427460Y2053031D01*
X11413134Y2050338D01*
X11399316Y2045817D01*
X11386108Y2039620D01*
X11373866Y2031847D01*
X11362639Y2022551D01*
X11352682Y2011934D01*
X11344097Y2000148D01*
X11337086Y1987397D01*
X11331752Y1973884D01*
X11328146Y1959762D01*
X11326317Y1945335D01*
X11326317Y1930806D01*
X11328146Y1916379D01*
X11331752Y1902256D01*
X11337086Y1888743D01*
X11344097Y1875993D01*
X11352682Y1864207D01*
X11362639Y1853590D01*
X11373866Y1844293D01*
X11386108Y1836521D01*
X11399316Y1830324D01*
X11413134Y1825802D01*
X11427460Y1823110D01*
G37*
G36*
X11158016Y1955038D02*
G01*
X11172494Y1955952D01*
X11186820Y1958644D01*
X11200638Y1963166D01*
X11213846Y1969363D01*
X11226088Y1977136D01*
X11237315Y1986432D01*
X11247272Y1997049D01*
X11255857Y2008835D01*
X11262868Y2021586D01*
X11268202Y2035098D01*
X11271808Y2049221D01*
X11273637Y2063648D01*
X11273637Y2078177D01*
X11271808Y2092604D01*
X11268202Y2106726D01*
X11262868Y2120239D01*
X11255857Y2132990D01*
X11247272Y2144776D01*
X11237315Y2155393D01*
X11226088Y2164689D01*
X11213846Y2172462D01*
X11200638Y2178659D01*
X11186820Y2183180D01*
X11172494Y2185873D01*
X11158016Y2186787D01*
X11143488Y2185873D01*
X11129162Y2183180D01*
X11115344Y2178659D01*
X11102136Y2172462D01*
X11089894Y2164689D01*
X11078667Y2155393D01*
X11068710Y2144776D01*
X11060125Y2132990D01*
X11053114Y2120239D01*
X11047780Y2106726D01*
X11044174Y2092604D01*
X11042345Y2078177D01*
X11042345Y2063648D01*
X11044174Y2049221D01*
X11047780Y2035098D01*
X11053114Y2021586D01*
X11060125Y2008835D01*
X11068710Y1997049D01*
X11078667Y1986432D01*
X11089894Y1977136D01*
X11102136Y1969363D01*
X11115344Y1963166D01*
X11129162Y1958644D01*
X11143488Y1955952D01*
G37*
G36*
X11441988Y2099056D02*
G01*
X11456466Y2099970D01*
X11470792Y2102662D01*
X11484610Y2107184D01*
X11497818Y2113381D01*
X11510060Y2121154D01*
X11521287Y2130450D01*
X11531244Y2141067D01*
X11539829Y2152853D01*
X11546840Y2165604D01*
X11552174Y2179116D01*
X11555780Y2193239D01*
X11557609Y2207666D01*
X11557609Y2222195D01*
X11555780Y2236622D01*
X11552174Y2250744D01*
X11546840Y2264257D01*
X11539829Y2277008D01*
X11531244Y2288794D01*
X11521287Y2299411D01*
X11510060Y2308707D01*
X11497818Y2316480D01*
X11484610Y2322677D01*
X11470792Y2327198D01*
X11456466Y2329891D01*
X11441988Y2330805D01*
X11427460Y2329891D01*
X11413134Y2327198D01*
X11399316Y2322677D01*
X11386108Y2316480D01*
X11373866Y2308707D01*
X11362639Y2299411D01*
X11352682Y2288794D01*
X11344097Y2277008D01*
X11337086Y2264257D01*
X11331752Y2250744D01*
X11328146Y2236622D01*
X11326317Y2222195D01*
X11326317Y2207666D01*
X11328146Y2193239D01*
X11331752Y2179116D01*
X11337086Y2165604D01*
X11344097Y2152853D01*
X11352682Y2141067D01*
X11362639Y2130450D01*
X11373866Y2121154D01*
X11386108Y2113381D01*
X11399316Y2107184D01*
X11413134Y2102662D01*
X11427460Y2099970D01*
G37*
G36*
X11158016Y2233168D02*
G01*
X11172494Y2234082D01*
X11186820Y2236774D01*
X11200638Y2241296D01*
X11213846Y2247493D01*
X11226088Y2255266D01*
X11237315Y2264562D01*
X11247272Y2275179D01*
X11255857Y2286965D01*
X11262868Y2299716D01*
X11268202Y2313228D01*
X11271808Y2327351D01*
X11273637Y2341778D01*
X11273637Y2356307D01*
X11271808Y2370734D01*
X11268202Y2384856D01*
X11262868Y2398369D01*
X11255857Y2411120D01*
X11247272Y2422906D01*
X11237315Y2433523D01*
X11226088Y2442819D01*
X11213846Y2450592D01*
X11200638Y2456789D01*
X11186820Y2461310D01*
X11172494Y2464003D01*
X11158016Y2464917D01*
X11143488Y2464003D01*
X11129162Y2461310D01*
X11115344Y2456789D01*
X11102136Y2450592D01*
X11089894Y2442819D01*
X11078667Y2433523D01*
X11068710Y2422906D01*
X11060125Y2411120D01*
X11053114Y2398369D01*
X11047780Y2384856D01*
X11044174Y2370734D01*
X11042345Y2356307D01*
X11042345Y2341778D01*
X11044174Y2327351D01*
X11047780Y2313228D01*
X11053114Y2299716D01*
X11060125Y2286965D01*
X11068710Y2275179D01*
X11078667Y2264562D01*
X11089894Y2255266D01*
X11102136Y2247493D01*
X11115344Y2241296D01*
X11129162Y2236774D01*
X11143488Y2234082D01*
G37*
G36*
X11441988Y2376170D02*
G01*
X11456466Y2377084D01*
X11470792Y2379776D01*
X11484610Y2384298D01*
X11497818Y2390495D01*
X11510060Y2398268D01*
X11521287Y2407564D01*
X11531244Y2418181D01*
X11539829Y2429967D01*
X11546840Y2442718D01*
X11552174Y2456230D01*
X11555780Y2470353D01*
X11557609Y2484780D01*
X11557609Y2499309D01*
X11555780Y2513736D01*
X11552174Y2527858D01*
X11546840Y2541371D01*
X11539829Y2554122D01*
X11531244Y2565908D01*
X11521287Y2576525D01*
X11510060Y2585821D01*
X11497818Y2593594D01*
X11484610Y2599791D01*
X11470792Y2604312D01*
X11456466Y2607005D01*
X11441988Y2607919D01*
X11427460Y2607005D01*
X11413134Y2604312D01*
X11399316Y2599791D01*
X11386108Y2593594D01*
X11373866Y2585821D01*
X11362639Y2576525D01*
X11352682Y2565908D01*
X11344097Y2554122D01*
X11337086Y2541371D01*
X11331752Y2527858D01*
X11328146Y2513736D01*
X11326317Y2499309D01*
X11326317Y2484780D01*
X11328146Y2470353D01*
X11331752Y2456230D01*
X11337086Y2442718D01*
X11344097Y2429967D01*
X11352682Y2418181D01*
X11362639Y2407564D01*
X11373866Y2398268D01*
X11386108Y2390495D01*
X11399316Y2384298D01*
X11413134Y2379776D01*
X11427460Y2377084D01*
G37*
G36*
X11158016Y2511044D02*
G01*
X11172494Y2511958D01*
X11186820Y2514650D01*
X11200638Y2519172D01*
X11213846Y2525369D01*
X11226088Y2533142D01*
X11237315Y2542438D01*
X11247272Y2553055D01*
X11255857Y2564841D01*
X11262868Y2577592D01*
X11268202Y2591104D01*
X11271808Y2605227D01*
X11273637Y2619654D01*
X11273637Y2634183D01*
X11271808Y2648610D01*
X11268202Y2662732D01*
X11262868Y2676245D01*
X11255857Y2688996D01*
X11247272Y2700782D01*
X11237315Y2711399D01*
X11226088Y2720695D01*
X11213846Y2728468D01*
X11200638Y2734665D01*
X11186820Y2739186D01*
X11172494Y2741879D01*
X11158016Y2742793D01*
X11143488Y2741879D01*
X11129162Y2739186D01*
X11115344Y2734665D01*
X11102136Y2728468D01*
X11089894Y2720695D01*
X11078667Y2711399D01*
X11068710Y2700782D01*
X11060125Y2688996D01*
X11053114Y2676245D01*
X11047780Y2662732D01*
X11044174Y2648610D01*
X11042345Y2634183D01*
X11042345Y2619654D01*
X11044174Y2605227D01*
X11047780Y2591104D01*
X11053114Y2577592D01*
X11060125Y2564841D01*
X11068710Y2553055D01*
X11078667Y2542438D01*
X11089894Y2533142D01*
X11102136Y2525369D01*
X11115344Y2519172D01*
X11129162Y2514650D01*
X11143488Y2511958D01*
G37*
G36*
X9296298Y2583180D02*
G01*
X9311030Y2583637D01*
X9325610Y2585923D01*
X9339834Y2589936D01*
X9353397Y2595676D01*
X9366199Y2603093D01*
X9377984Y2611983D01*
X9388551Y2622245D01*
X9397796Y2633726D01*
X9405569Y2646273D01*
X9411766Y2659684D01*
X9416237Y2673756D01*
X9418929Y2688285D01*
X9419844Y2702966D01*
X9418929Y2717698D01*
X9416237Y2732227D01*
X9411766Y2746298D01*
X9405569Y2759710D01*
X9397796Y2772257D01*
X9388551Y2783738D01*
X9377984Y2794000D01*
X9366199Y2802890D01*
X9353397Y2810306D01*
X9339834Y2816047D01*
X9325152Y2820212D01*
X9321342Y2822295D01*
X9318701Y2825750D01*
X9317786Y2829966D01*
X9318701Y2834233D01*
X9321342Y2837688D01*
X9325152Y2839770D01*
X9339834Y2843936D01*
X9353397Y2849676D01*
X9366199Y2857093D01*
X9377984Y2865983D01*
X9388551Y2876245D01*
X9397796Y2887726D01*
X9405569Y2900273D01*
X9411766Y2913684D01*
X9416237Y2927756D01*
X9418929Y2942285D01*
X9419844Y2956966D01*
X9418929Y2971698D01*
X9416237Y2986227D01*
X9411766Y3000298D01*
X9405569Y3013710D01*
X9397796Y3026257D01*
X9388551Y3037738D01*
X9377984Y3048000D01*
X9366199Y3056890D01*
X9353397Y3064306D01*
X9339834Y3070047D01*
X9325152Y3074212D01*
X9321342Y3076295D01*
X9318701Y3079750D01*
X9317786Y3083966D01*
X9318701Y3088233D01*
X9321342Y3091688D01*
X9325152Y3093770D01*
X9339834Y3097936D01*
X9353397Y3103676D01*
X9366199Y3111093D01*
X9377984Y3119983D01*
X9388551Y3130245D01*
X9397796Y3141726D01*
X9405569Y3154273D01*
X9411766Y3167684D01*
X9416237Y3181756D01*
X9418929Y3196285D01*
X9419844Y3210966D01*
X9418929Y3225698D01*
X9416237Y3240227D01*
X9411766Y3254298D01*
X9405569Y3267710D01*
X9397796Y3280257D01*
X9388551Y3291738D01*
X9377984Y3302000D01*
X9366199Y3310890D01*
X9353397Y3318306D01*
X9339834Y3324047D01*
X9325152Y3328212D01*
X9321342Y3330295D01*
X9318701Y3333750D01*
X9317786Y3337966D01*
X9318701Y3342233D01*
X9321342Y3345687D01*
X9325152Y3347770D01*
X9339834Y3351936D01*
X9353397Y3357676D01*
X9366199Y3365093D01*
X9377984Y3373983D01*
X9388551Y3384245D01*
X9397796Y3395726D01*
X9405569Y3408273D01*
X9411766Y3421684D01*
X9416237Y3435756D01*
X9418929Y3450285D01*
X9419844Y3464966D01*
X9418929Y3479698D01*
X9416237Y3494227D01*
X9411766Y3508298D01*
X9405569Y3521710D01*
X9397796Y3534257D01*
X9388551Y3545738D01*
X9377984Y3556000D01*
X9366199Y3564890D01*
X9353397Y3572306D01*
X9339834Y3578047D01*
X9325152Y3582212D01*
X9321342Y3584295D01*
X9318701Y3587750D01*
X9317786Y3591966D01*
X9318701Y3596233D01*
X9321342Y3599687D01*
X9325152Y3601770D01*
X9339834Y3605936D01*
X9353397Y3611676D01*
X9366199Y3619093D01*
X9377984Y3627983D01*
X9388551Y3638245D01*
X9397796Y3649726D01*
X9405569Y3662273D01*
X9411766Y3675684D01*
X9416237Y3689756D01*
X9418929Y3704285D01*
X9419844Y3718966D01*
X9418929Y3733698D01*
X9416237Y3748227D01*
X9411766Y3762298D01*
X9405569Y3775710D01*
X9397796Y3788257D01*
X9388551Y3799738D01*
X9377984Y3810000D01*
X9366199Y3818890D01*
X9353397Y3826306D01*
X9339834Y3832047D01*
X9325152Y3836212D01*
X9321342Y3838295D01*
X9318701Y3841750D01*
X9317786Y3845966D01*
X9318701Y3850233D01*
X9321342Y3853687D01*
X9325152Y3855770D01*
X9339834Y3859936D01*
X9353397Y3865676D01*
X9366199Y3873093D01*
X9377984Y3881983D01*
X9388551Y3892245D01*
X9397796Y3903726D01*
X9405569Y3916273D01*
X9411766Y3929684D01*
X9416237Y3943756D01*
X9418929Y3958285D01*
X9419844Y3972966D01*
X9418929Y3987698D01*
X9416237Y4002227D01*
X9411766Y4016298D01*
X9405569Y4029710D01*
X9397796Y4042257D01*
X9388551Y4053738D01*
X9377984Y4064000D01*
X9366199Y4072890D01*
X9353397Y4080306D01*
X9339834Y4086047D01*
X9325152Y4090212D01*
X9321342Y4092295D01*
X9318701Y4095750D01*
X9317786Y4099966D01*
X9318701Y4104233D01*
X9321342Y4107687D01*
X9325152Y4109770D01*
X9339834Y4113936D01*
X9353397Y4119676D01*
X9366199Y4127093D01*
X9377984Y4135983D01*
X9388551Y4146245D01*
X9397796Y4157726D01*
X9405569Y4170273D01*
X9411766Y4183684D01*
X9416237Y4197756D01*
X9418929Y4212285D01*
X9419844Y4226966D01*
X9418929Y4241698D01*
X9416237Y4256227D01*
X9411766Y4270298D01*
X9405569Y4283710D01*
X9397796Y4296257D01*
X9388551Y4307738D01*
X9377984Y4318000D01*
X9366199Y4326890D01*
X9353397Y4334306D01*
X9339834Y4340047D01*
X9325152Y4344212D01*
X9321342Y4346295D01*
X9318701Y4349750D01*
X9317786Y4353966D01*
X9318701Y4358233D01*
X9321342Y4361688D01*
X9325152Y4363770D01*
X9339834Y4367936D01*
X9353397Y4373676D01*
X9366199Y4381093D01*
X9377984Y4389983D01*
X9388551Y4400245D01*
X9397796Y4411726D01*
X9405569Y4424273D01*
X9411766Y4437684D01*
X9416237Y4451756D01*
X9418929Y4466285D01*
X9419844Y4480966D01*
X9418929Y4495698D01*
X9416237Y4510227D01*
X9411766Y4524298D01*
X9405569Y4537710D01*
X9397796Y4550257D01*
X9388551Y4561738D01*
X9377984Y4572000D01*
X9366199Y4580890D01*
X9353397Y4588306D01*
X9339834Y4594047D01*
X9325152Y4598212D01*
X9321342Y4600295D01*
X9318701Y4603750D01*
X9317786Y4607966D01*
X9318701Y4612233D01*
X9321342Y4615688D01*
X9325152Y4617770D01*
X9339834Y4621936D01*
X9353397Y4627676D01*
X9366199Y4635093D01*
X9377984Y4643983D01*
X9388551Y4654245D01*
X9397796Y4665726D01*
X9405569Y4678273D01*
X9411766Y4691684D01*
X9416237Y4705756D01*
X9418929Y4720285D01*
X9419844Y4734966D01*
X9418929Y4749698D01*
X9416237Y4764227D01*
X9411766Y4778298D01*
X9405569Y4791710D01*
X9397796Y4804257D01*
X9388551Y4815738D01*
X9377984Y4826000D01*
X9366199Y4834890D01*
X9353397Y4842306D01*
X9339834Y4848047D01*
X9325152Y4852212D01*
X9321342Y4854295D01*
X9318701Y4857750D01*
X9317786Y4861966D01*
X9318701Y4866233D01*
X9321342Y4869688D01*
X9325152Y4871770D01*
X9339834Y4875936D01*
X9353397Y4881676D01*
X9366199Y4889093D01*
X9377984Y4897983D01*
X9388551Y4908245D01*
X9397796Y4919726D01*
X9405569Y4932273D01*
X9411766Y4945684D01*
X9416237Y4959756D01*
X9418929Y4974285D01*
X9419844Y4988966D01*
X9418929Y5003698D01*
X9416237Y5018227D01*
X9411766Y5032298D01*
X9405569Y5045710D01*
X9397796Y5058257D01*
X9388551Y5069738D01*
X9377984Y5080000D01*
X9366199Y5088890D01*
X9353397Y5096306D01*
X9339834Y5102047D01*
X9325152Y5106212D01*
X9321342Y5108295D01*
X9318701Y5111750D01*
X9317786Y5115966D01*
X9318701Y5120233D01*
X9321342Y5123688D01*
X9325152Y5125770D01*
X9339834Y5129936D01*
X9353397Y5135676D01*
X9366199Y5143093D01*
X9377984Y5151983D01*
X9388551Y5162245D01*
X9397796Y5173726D01*
X9405569Y5186273D01*
X9411766Y5199684D01*
X9416237Y5213756D01*
X9418929Y5228285D01*
X9419844Y5242966D01*
X9418929Y5257698D01*
X9416237Y5272227D01*
X9411766Y5286298D01*
X9405569Y5299710D01*
X9397796Y5312257D01*
X9388551Y5323738D01*
X9377984Y5334000D01*
X9366199Y5342890D01*
X9353397Y5350306D01*
X9339834Y5356047D01*
X9325152Y5360212D01*
X9321342Y5362295D01*
X9318701Y5365750D01*
X9317786Y5369966D01*
X9318701Y5374233D01*
X9321342Y5377688D01*
X9325152Y5379770D01*
X9339834Y5383936D01*
X9353397Y5389676D01*
X9366199Y5397093D01*
X9377984Y5405983D01*
X9388551Y5416245D01*
X9397796Y5427726D01*
X9405569Y5440273D01*
X9411766Y5453684D01*
X9416237Y5467756D01*
X9418929Y5482285D01*
X9419844Y5496966D01*
X9418929Y5511698D01*
X9416237Y5526227D01*
X9411766Y5540298D01*
X9405569Y5553710D01*
X9397796Y5566257D01*
X9388551Y5577738D01*
X9377984Y5588000D01*
X9366199Y5596890D01*
X9353397Y5604306D01*
X9339834Y5610047D01*
X9325610Y5614060D01*
X9311030Y5616346D01*
X9296298Y5616803D01*
X9281617Y5615432D01*
X9267190Y5612282D01*
X9253270Y5607354D01*
X9240062Y5600801D01*
X9227769Y5592673D01*
X9216542Y5583021D01*
X9206585Y5572150D01*
X9198051Y5560110D01*
X9191091Y5547106D01*
X9185757Y5533339D01*
X9182150Y5519013D01*
X9180322Y5504383D01*
X9180322Y5489600D01*
X9182150Y5474970D01*
X9185757Y5460644D01*
X9191091Y5446877D01*
X9198051Y5433872D01*
X9206585Y5421833D01*
X9216542Y5410911D01*
X9227769Y5401310D01*
X9240062Y5393182D01*
X9253270Y5386628D01*
X9267190Y5381701D01*
X9275318Y5379923D01*
X9278924Y5378348D01*
X9281617Y5375554D01*
X9283090Y5371947D01*
X9283090Y5368036D01*
X9281617Y5364429D01*
X9278924Y5361635D01*
X9275318Y5360060D01*
X9267190Y5358282D01*
X9253270Y5353354D01*
X9240062Y5346801D01*
X9227769Y5338673D01*
X9216542Y5329021D01*
X9206585Y5318150D01*
X9198051Y5306110D01*
X9191091Y5293106D01*
X9185757Y5279339D01*
X9182150Y5265013D01*
X9180322Y5250383D01*
X9180322Y5235600D01*
X9182150Y5220970D01*
X9185757Y5206644D01*
X9191091Y5192877D01*
X9198051Y5179872D01*
X9206585Y5167833D01*
X9216542Y5156911D01*
X9227769Y5147310D01*
X9240062Y5139182D01*
X9253270Y5132628D01*
X9267190Y5127701D01*
X9275318Y5125923D01*
X9278924Y5124348D01*
X9281617Y5121554D01*
X9283090Y5117947D01*
X9283090Y5114036D01*
X9281617Y5110429D01*
X9278924Y5107635D01*
X9275318Y5106060D01*
X9267190Y5104282D01*
X9253270Y5099354D01*
X9240062Y5092801D01*
X9227769Y5084673D01*
X9216542Y5075021D01*
X9206585Y5064150D01*
X9198051Y5052110D01*
X9191091Y5039106D01*
X9185757Y5025339D01*
X9182150Y5011013D01*
X9180322Y4996383D01*
X9180322Y4981600D01*
X9182150Y4966970D01*
X9185757Y4952644D01*
X9191091Y4938877D01*
X9198051Y4925872D01*
X9206585Y4913833D01*
X9216542Y4902911D01*
X9227769Y4893310D01*
X9240062Y4885182D01*
X9253270Y4878628D01*
X9267190Y4873701D01*
X9275318Y4871923D01*
X9278924Y4870348D01*
X9281617Y4867554D01*
X9283090Y4863947D01*
X9283090Y4860036D01*
X9281617Y4856429D01*
X9278924Y4853635D01*
X9275318Y4852060D01*
X9267190Y4850282D01*
X9253270Y4845354D01*
X9240062Y4838801D01*
X9227769Y4830673D01*
X9216542Y4821021D01*
X9206585Y4810150D01*
X9198051Y4798110D01*
X9191091Y4785106D01*
X9185757Y4771339D01*
X9182150Y4757013D01*
X9180322Y4742383D01*
X9180322Y4727600D01*
X9182150Y4712970D01*
X9185757Y4698644D01*
X9191091Y4684877D01*
X9198051Y4671872D01*
X9206585Y4659833D01*
X9216542Y4648911D01*
X9227769Y4639310D01*
X9240062Y4631182D01*
X9253270Y4624628D01*
X9267190Y4619701D01*
X9275318Y4617923D01*
X9278924Y4616348D01*
X9281617Y4613554D01*
X9283090Y4609947D01*
X9283090Y4606036D01*
X9281617Y4602429D01*
X9278924Y4599635D01*
X9275318Y4598060D01*
X9267190Y4596282D01*
X9253270Y4591354D01*
X9240062Y4584801D01*
X9227769Y4576673D01*
X9216542Y4567021D01*
X9206585Y4556150D01*
X9198051Y4544110D01*
X9191091Y4531106D01*
X9185757Y4517339D01*
X9182150Y4503013D01*
X9180322Y4488383D01*
X9180322Y4473600D01*
X9182150Y4458970D01*
X9185757Y4444644D01*
X9191091Y4430877D01*
X9198051Y4417872D01*
X9206585Y4405833D01*
X9216542Y4394911D01*
X9227769Y4385310D01*
X9240062Y4377182D01*
X9253270Y4370628D01*
X9267190Y4365701D01*
X9275318Y4363923D01*
X9278924Y4362348D01*
X9281617Y4359554D01*
X9283090Y4355947D01*
X9283090Y4352036D01*
X9281617Y4348429D01*
X9278924Y4345635D01*
X9275318Y4344060D01*
X9267190Y4342282D01*
X9253270Y4337354D01*
X9240062Y4330801D01*
X9227769Y4322673D01*
X9216542Y4313021D01*
X9206585Y4302150D01*
X9198051Y4290110D01*
X9191091Y4277106D01*
X9185757Y4263339D01*
X9182150Y4249013D01*
X9180322Y4234383D01*
X9180322Y4219600D01*
X9182150Y4204970D01*
X9185757Y4190644D01*
X9191091Y4176877D01*
X9198051Y4163872D01*
X9206585Y4151833D01*
X9216542Y4140911D01*
X9227769Y4131310D01*
X9240062Y4123182D01*
X9253270Y4116628D01*
X9267190Y4111701D01*
X9275318Y4109923D01*
X9278924Y4108348D01*
X9281617Y4105554D01*
X9283090Y4101947D01*
X9283090Y4098036D01*
X9281617Y4094429D01*
X9278924Y4091635D01*
X9275318Y4090060D01*
X9267190Y4088282D01*
X9253270Y4083354D01*
X9240062Y4076801D01*
X9227769Y4068673D01*
X9216542Y4059021D01*
X9206585Y4048150D01*
X9198051Y4036110D01*
X9191091Y4023106D01*
X9185757Y4009339D01*
X9182150Y3995013D01*
X9180322Y3980383D01*
X9180322Y3965600D01*
X9182150Y3950970D01*
X9185757Y3936644D01*
X9191091Y3922877D01*
X9198051Y3909872D01*
X9206585Y3897833D01*
X9216542Y3886911D01*
X9227769Y3877310D01*
X9240062Y3869182D01*
X9253270Y3862628D01*
X9267190Y3857701D01*
X9275318Y3855923D01*
X9278924Y3854348D01*
X9281617Y3851554D01*
X9283090Y3847947D01*
X9283090Y3844036D01*
X9281617Y3840429D01*
X9278924Y3837635D01*
X9275318Y3836060D01*
X9267190Y3834282D01*
X9253270Y3829354D01*
X9240062Y3822801D01*
X9227769Y3814673D01*
X9216542Y3805021D01*
X9206585Y3794150D01*
X9198051Y3782110D01*
X9191091Y3769106D01*
X9185757Y3755339D01*
X9182150Y3741013D01*
X9180322Y3726383D01*
X9180322Y3711600D01*
X9182150Y3696970D01*
X9185757Y3682644D01*
X9191091Y3668877D01*
X9198051Y3655872D01*
X9206585Y3643833D01*
X9216542Y3632911D01*
X9227769Y3623310D01*
X9240062Y3615182D01*
X9253270Y3608628D01*
X9267190Y3603701D01*
X9275318Y3601923D01*
X9278924Y3600348D01*
X9281617Y3597554D01*
X9283090Y3593947D01*
X9283090Y3590036D01*
X9281617Y3586429D01*
X9278924Y3583635D01*
X9275318Y3582060D01*
X9267190Y3580282D01*
X9253270Y3575354D01*
X9240062Y3568801D01*
X9227769Y3560673D01*
X9216542Y3551021D01*
X9206585Y3540150D01*
X9198051Y3528110D01*
X9191091Y3515106D01*
X9185757Y3501339D01*
X9182150Y3487013D01*
X9180322Y3472383D01*
X9180322Y3457600D01*
X9182150Y3442970D01*
X9185757Y3428644D01*
X9191091Y3414877D01*
X9198051Y3401872D01*
X9206585Y3389833D01*
X9216542Y3378911D01*
X9227769Y3369310D01*
X9240062Y3361182D01*
X9253270Y3354628D01*
X9267190Y3349701D01*
X9275318Y3347923D01*
X9278924Y3346348D01*
X9281617Y3343554D01*
X9283090Y3339947D01*
X9283090Y3336036D01*
X9281617Y3332429D01*
X9278924Y3329635D01*
X9275318Y3328060D01*
X9267190Y3326282D01*
X9253270Y3321354D01*
X9240062Y3314801D01*
X9227769Y3306673D01*
X9216542Y3297021D01*
X9206585Y3286150D01*
X9198051Y3274110D01*
X9191091Y3261106D01*
X9185757Y3247339D01*
X9182150Y3233013D01*
X9180322Y3218383D01*
X9180322Y3203600D01*
X9182150Y3188970D01*
X9185757Y3174644D01*
X9191091Y3160877D01*
X9198051Y3147872D01*
X9206585Y3135833D01*
X9216542Y3124911D01*
X9227769Y3115310D01*
X9240062Y3107182D01*
X9253270Y3100628D01*
X9267190Y3095701D01*
X9275318Y3093923D01*
X9278924Y3092348D01*
X9281617Y3089554D01*
X9283090Y3085947D01*
X9283090Y3082036D01*
X9281617Y3078429D01*
X9278924Y3075635D01*
X9275318Y3074060D01*
X9267190Y3072282D01*
X9253270Y3067354D01*
X9240062Y3060801D01*
X9227769Y3052673D01*
X9216542Y3043021D01*
X9206585Y3032150D01*
X9198051Y3020110D01*
X9191091Y3007106D01*
X9185757Y2993339D01*
X9182150Y2979013D01*
X9180322Y2964383D01*
X9180322Y2949600D01*
X9182150Y2934970D01*
X9185757Y2920644D01*
X9191091Y2906877D01*
X9198051Y2893872D01*
X9206585Y2881833D01*
X9216542Y2870911D01*
X9227769Y2861310D01*
X9240062Y2853182D01*
X9253270Y2846628D01*
X9267190Y2841701D01*
X9275318Y2839923D01*
X9278924Y2838348D01*
X9281617Y2835554D01*
X9283090Y2831947D01*
X9283090Y2828036D01*
X9281617Y2824429D01*
X9278924Y2821635D01*
X9275318Y2820060D01*
X9267190Y2818282D01*
X9253270Y2813354D01*
X9240062Y2806801D01*
X9227769Y2798673D01*
X9216542Y2789021D01*
X9206585Y2778150D01*
X9198051Y2766110D01*
X9191091Y2753106D01*
X9185757Y2739339D01*
X9182150Y2725013D01*
X9180322Y2710383D01*
X9180322Y2695600D01*
X9182150Y2680970D01*
X9185757Y2666644D01*
X9191091Y2652877D01*
X9198051Y2639872D01*
X9206585Y2627833D01*
X9216542Y2616911D01*
X9227769Y2607310D01*
X9240062Y2599182D01*
X9253270Y2592628D01*
X9267190Y2587701D01*
X9281617Y2584551D01*
G37*
G36*
X11441988Y2653030D02*
G01*
X11456466Y2653944D01*
X11470792Y2656636D01*
X11484610Y2661158D01*
X11497818Y2667355D01*
X11510060Y2675128D01*
X11521287Y2684424D01*
X11531244Y2695041D01*
X11539829Y2706827D01*
X11546840Y2719578D01*
X11552174Y2733090D01*
X11555780Y2747213D01*
X11557609Y2761640D01*
X11557609Y2776169D01*
X11555780Y2790596D01*
X11552174Y2804718D01*
X11546840Y2818231D01*
X11539829Y2830982D01*
X11531244Y2842768D01*
X11521287Y2853385D01*
X11510060Y2862681D01*
X11497818Y2870454D01*
X11484610Y2876651D01*
X11470792Y2881172D01*
X11456466Y2883865D01*
X11441988Y2884779D01*
X11427460Y2883865D01*
X11413134Y2881172D01*
X11399316Y2876651D01*
X11386108Y2870454D01*
X11373866Y2862681D01*
X11362639Y2853385D01*
X11352682Y2842768D01*
X11344097Y2830982D01*
X11337086Y2818231D01*
X11331752Y2804718D01*
X11328146Y2790596D01*
X11326317Y2776169D01*
X11326317Y2761640D01*
X11328146Y2747213D01*
X11331752Y2733090D01*
X11337086Y2719578D01*
X11344097Y2706827D01*
X11352682Y2695041D01*
X11362639Y2684424D01*
X11373866Y2675128D01*
X11386108Y2667355D01*
X11399316Y2661158D01*
X11413134Y2656636D01*
X11427460Y2653944D01*
G37*
G36*
X11158016Y2789174D02*
G01*
X11172494Y2790088D01*
X11186820Y2792780D01*
X11200638Y2797302D01*
X11213846Y2803499D01*
X11226088Y2811272D01*
X11237315Y2820568D01*
X11247272Y2831185D01*
X11255857Y2842971D01*
X11262868Y2855722D01*
X11268202Y2869234D01*
X11271808Y2883357D01*
X11273637Y2897784D01*
X11273637Y2912313D01*
X11271808Y2926740D01*
X11268202Y2940862D01*
X11262868Y2954375D01*
X11255857Y2967126D01*
X11247272Y2978912D01*
X11237315Y2989529D01*
X11226088Y2998825D01*
X11213846Y3006598D01*
X11200638Y3012795D01*
X11186820Y3017316D01*
X11172494Y3020009D01*
X11158016Y3020923D01*
X11143488Y3020009D01*
X11129162Y3017316D01*
X11115344Y3012795D01*
X11102136Y3006598D01*
X11089894Y2998825D01*
X11078667Y2989529D01*
X11068710Y2978912D01*
X11060125Y2967126D01*
X11053114Y2954375D01*
X11047780Y2940862D01*
X11044174Y2926740D01*
X11042345Y2912313D01*
X11042345Y2897784D01*
X11044174Y2883357D01*
X11047780Y2869234D01*
X11053114Y2855722D01*
X11060125Y2842971D01*
X11068710Y2831185D01*
X11078667Y2820568D01*
X11089894Y2811272D01*
X11102136Y2803499D01*
X11115344Y2797302D01*
X11129162Y2792780D01*
X11143488Y2790088D01*
G37*
G36*
X11441988Y2930144D02*
G01*
X11456466Y2931058D01*
X11470792Y2933750D01*
X11484610Y2938272D01*
X11497818Y2944469D01*
X11510060Y2952242D01*
X11521287Y2961538D01*
X11531244Y2972155D01*
X11539829Y2983941D01*
X11546840Y2996692D01*
X11552174Y3010204D01*
X11555780Y3024327D01*
X11557609Y3038754D01*
X11557609Y3053283D01*
X11555780Y3067710D01*
X11552174Y3081832D01*
X11546840Y3095345D01*
X11539829Y3108096D01*
X11531244Y3119882D01*
X11521287Y3130499D01*
X11510060Y3139795D01*
X11497818Y3147568D01*
X11484610Y3153765D01*
X11470792Y3158286D01*
X11456466Y3160979D01*
X11441988Y3161893D01*
X11427460Y3160979D01*
X11413134Y3158286D01*
X11399316Y3153765D01*
X11386108Y3147568D01*
X11373866Y3139795D01*
X11362639Y3130499D01*
X11352682Y3119882D01*
X11344097Y3108096D01*
X11337086Y3095345D01*
X11331752Y3081832D01*
X11328146Y3067710D01*
X11326317Y3053283D01*
X11326317Y3038754D01*
X11328146Y3024327D01*
X11331752Y3010204D01*
X11337086Y2996692D01*
X11344097Y2983941D01*
X11352682Y2972155D01*
X11362639Y2961538D01*
X11373866Y2952242D01*
X11386108Y2944469D01*
X11399316Y2938272D01*
X11413134Y2933750D01*
X11427460Y2931058D01*
G37*
G36*
X11158016Y3067050D02*
G01*
X11172494Y3067964D01*
X11186820Y3070656D01*
X11200638Y3075178D01*
X11213846Y3081375D01*
X11226088Y3089148D01*
X11237315Y3098444D01*
X11247272Y3109061D01*
X11255857Y3120847D01*
X11262868Y3133598D01*
X11268202Y3147110D01*
X11271808Y3161233D01*
X11273637Y3175660D01*
X11273637Y3190189D01*
X11271808Y3204616D01*
X11268202Y3218738D01*
X11262868Y3232251D01*
X11255857Y3245002D01*
X11247272Y3256788D01*
X11237315Y3267405D01*
X11226088Y3276701D01*
X11213846Y3284474D01*
X11200638Y3290671D01*
X11186820Y3295192D01*
X11172494Y3297885D01*
X11158016Y3298799D01*
X11143488Y3297885D01*
X11129162Y3295192D01*
X11115344Y3290671D01*
X11102136Y3284474D01*
X11089894Y3276701D01*
X11078667Y3267405D01*
X11068710Y3256788D01*
X11060125Y3245002D01*
X11053114Y3232251D01*
X11047780Y3218738D01*
X11044174Y3204616D01*
X11042345Y3190189D01*
X11042345Y3175660D01*
X11044174Y3161233D01*
X11047780Y3147110D01*
X11053114Y3133598D01*
X11060125Y3120847D01*
X11068710Y3109061D01*
X11078667Y3098444D01*
X11089894Y3089148D01*
X11102136Y3081375D01*
X11115344Y3075178D01*
X11129162Y3070656D01*
X11143488Y3067964D01*
G37*
G36*
X11441988Y3207258D02*
G01*
X11456466Y3208172D01*
X11470792Y3210864D01*
X11484610Y3215386D01*
X11497818Y3221583D01*
X11510060Y3229356D01*
X11521287Y3238652D01*
X11531244Y3249269D01*
X11539829Y3261055D01*
X11546840Y3273806D01*
X11552174Y3287318D01*
X11555780Y3301441D01*
X11557609Y3315868D01*
X11557609Y3330397D01*
X11555780Y3344824D01*
X11552174Y3358946D01*
X11546840Y3372459D01*
X11539829Y3385210D01*
X11531244Y3396996D01*
X11521287Y3407613D01*
X11510060Y3416909D01*
X11497818Y3424682D01*
X11484610Y3430879D01*
X11470792Y3435400D01*
X11456466Y3438093D01*
X11441988Y3439007D01*
X11427460Y3438093D01*
X11413134Y3435400D01*
X11399316Y3430879D01*
X11386108Y3424682D01*
X11373866Y3416909D01*
X11362639Y3407613D01*
X11352682Y3396996D01*
X11344097Y3385210D01*
X11337086Y3372459D01*
X11331752Y3358946D01*
X11328146Y3344824D01*
X11326317Y3330397D01*
X11326317Y3315868D01*
X11328146Y3301441D01*
X11331752Y3287318D01*
X11337086Y3273806D01*
X11344097Y3261055D01*
X11352682Y3249269D01*
X11362639Y3238652D01*
X11373866Y3229356D01*
X11386108Y3221583D01*
X11399316Y3215386D01*
X11413134Y3210864D01*
X11427460Y3208172D01*
G37*
G36*
X11158016Y3345179D02*
G01*
X11172494Y3346094D01*
X11186820Y3348786D01*
X11200638Y3353308D01*
X11213846Y3359505D01*
X11226088Y3367278D01*
X11237315Y3376574D01*
X11247272Y3387191D01*
X11255857Y3398977D01*
X11262868Y3411728D01*
X11268202Y3425240D01*
X11271808Y3439363D01*
X11273637Y3453790D01*
X11273637Y3468319D01*
X11271808Y3482746D01*
X11268202Y3496868D01*
X11262868Y3510381D01*
X11255857Y3523132D01*
X11247272Y3534918D01*
X11237315Y3545535D01*
X11226088Y3554831D01*
X11213846Y3562604D01*
X11200638Y3568801D01*
X11186820Y3573322D01*
X11172494Y3576015D01*
X11158016Y3576929D01*
X11143488Y3576015D01*
X11129162Y3573322D01*
X11115344Y3568801D01*
X11102136Y3562604D01*
X11089894Y3554831D01*
X11078667Y3545535D01*
X11068710Y3534918D01*
X11060125Y3523132D01*
X11053114Y3510381D01*
X11047780Y3496868D01*
X11044174Y3482746D01*
X11042345Y3468319D01*
X11042345Y3453790D01*
X11044174Y3439363D01*
X11047780Y3425240D01*
X11053114Y3411728D01*
X11060125Y3398977D01*
X11068710Y3387191D01*
X11078667Y3376574D01*
X11089894Y3367278D01*
X11102136Y3359505D01*
X11115344Y3353308D01*
X11129162Y3348786D01*
X11143488Y3346094D01*
G37*
G36*
X11441988Y3484118D02*
G01*
X11456466Y3485032D01*
X11470792Y3487724D01*
X11484610Y3492246D01*
X11497818Y3498443D01*
X11510060Y3506215D01*
X11521287Y3515512D01*
X11531244Y3526129D01*
X11539829Y3537915D01*
X11546840Y3550665D01*
X11552174Y3564178D01*
X11555780Y3578301D01*
X11557609Y3592728D01*
X11557609Y3607257D01*
X11555780Y3621684D01*
X11552174Y3635806D01*
X11546840Y3649319D01*
X11539829Y3662070D01*
X11531244Y3673856D01*
X11521287Y3684473D01*
X11510060Y3693769D01*
X11497818Y3701542D01*
X11484610Y3707739D01*
X11470792Y3712260D01*
X11456466Y3714953D01*
X11441988Y3715867D01*
X11427460Y3714953D01*
X11413134Y3712260D01*
X11399316Y3707739D01*
X11386108Y3701542D01*
X11373866Y3693769D01*
X11362639Y3684473D01*
X11352682Y3673856D01*
X11344097Y3662070D01*
X11337086Y3649319D01*
X11331752Y3635806D01*
X11328146Y3621684D01*
X11326317Y3607257D01*
X11326317Y3592728D01*
X11328146Y3578301D01*
X11331752Y3564178D01*
X11337086Y3550665D01*
X11344097Y3537915D01*
X11352682Y3526129D01*
X11362639Y3515512D01*
X11373866Y3506215D01*
X11386108Y3498443D01*
X11399316Y3492246D01*
X11413134Y3487724D01*
X11427460Y3485032D01*
G37*
G36*
X11158016Y3623056D02*
G01*
X11172494Y3623970D01*
X11186820Y3626662D01*
X11200638Y3631184D01*
X11213846Y3637381D01*
X11226088Y3645154D01*
X11237315Y3654450D01*
X11247272Y3665067D01*
X11255857Y3676853D01*
X11262868Y3689604D01*
X11268202Y3703116D01*
X11271808Y3717239D01*
X11273637Y3731666D01*
X11273637Y3746195D01*
X11271808Y3760622D01*
X11268202Y3774744D01*
X11262868Y3788257D01*
X11255857Y3801008D01*
X11247272Y3812794D01*
X11237315Y3823411D01*
X11226088Y3832707D01*
X11213846Y3840479D01*
X11200638Y3846677D01*
X11186820Y3851198D01*
X11172494Y3853891D01*
X11158016Y3854805D01*
X11143488Y3853891D01*
X11129162Y3851198D01*
X11115344Y3846677D01*
X11102136Y3840479D01*
X11089894Y3832707D01*
X11078667Y3823411D01*
X11068710Y3812794D01*
X11060125Y3801008D01*
X11053114Y3788257D01*
X11047780Y3774744D01*
X11044174Y3760622D01*
X11042345Y3746195D01*
X11042345Y3731666D01*
X11044174Y3717239D01*
X11047780Y3703116D01*
X11053114Y3689604D01*
X11060125Y3676853D01*
X11068710Y3665067D01*
X11078667Y3654450D01*
X11089894Y3645154D01*
X11102136Y3637381D01*
X11115344Y3631184D01*
X11129162Y3626662D01*
X11143488Y3623970D01*
G37*
G36*
X11441988Y3761232D02*
G01*
X11456466Y3762146D01*
X11470792Y3764838D01*
X11484610Y3769360D01*
X11497818Y3775557D01*
X11510060Y3783329D01*
X11521287Y3792626D01*
X11531244Y3803243D01*
X11539829Y3815029D01*
X11546840Y3827779D01*
X11552174Y3841292D01*
X11555780Y3855415D01*
X11557609Y3869842D01*
X11557609Y3884371D01*
X11555780Y3898798D01*
X11552174Y3912920D01*
X11546840Y3926433D01*
X11539829Y3939184D01*
X11531244Y3950970D01*
X11521287Y3961587D01*
X11510060Y3970883D01*
X11497818Y3978656D01*
X11484610Y3984853D01*
X11470792Y3989374D01*
X11456466Y3992067D01*
X11441988Y3992981D01*
X11427460Y3992067D01*
X11413134Y3989374D01*
X11399316Y3984853D01*
X11386108Y3978656D01*
X11373866Y3970883D01*
X11362639Y3961587D01*
X11352682Y3950970D01*
X11344097Y3939184D01*
X11337086Y3926433D01*
X11331752Y3912920D01*
X11328146Y3898798D01*
X11326317Y3884371D01*
X11326317Y3869842D01*
X11328146Y3855415D01*
X11331752Y3841292D01*
X11337086Y3827779D01*
X11344097Y3815029D01*
X11352682Y3803243D01*
X11362639Y3792626D01*
X11373866Y3783329D01*
X11386108Y3775557D01*
X11399316Y3769360D01*
X11413134Y3764838D01*
X11427460Y3762146D01*
G37*
G36*
X11158016Y3901186D02*
G01*
X11172494Y3902100D01*
X11186820Y3904792D01*
X11200638Y3909314D01*
X11213846Y3915511D01*
X11226088Y3923284D01*
X11237315Y3932580D01*
X11247272Y3943197D01*
X11255857Y3954983D01*
X11262868Y3967734D01*
X11268202Y3981246D01*
X11271808Y3995369D01*
X11273637Y4009796D01*
X11273637Y4024325D01*
X11271808Y4038752D01*
X11268202Y4052874D01*
X11262868Y4066387D01*
X11255857Y4079138D01*
X11247272Y4090924D01*
X11237315Y4101541D01*
X11226088Y4110837D01*
X11213846Y4118610D01*
X11200638Y4124807D01*
X11186820Y4129328D01*
X11172494Y4132021D01*
X11158016Y4132935D01*
X11143488Y4132021D01*
X11129162Y4129328D01*
X11115344Y4124807D01*
X11102136Y4118610D01*
X11089894Y4110837D01*
X11078667Y4101541D01*
X11068710Y4090924D01*
X11060125Y4079138D01*
X11053114Y4066387D01*
X11047780Y4052874D01*
X11044174Y4038752D01*
X11042345Y4024325D01*
X11042345Y4009796D01*
X11044174Y3995369D01*
X11047780Y3981246D01*
X11053114Y3967734D01*
X11060125Y3954983D01*
X11068710Y3943197D01*
X11078667Y3932580D01*
X11089894Y3923284D01*
X11102136Y3915511D01*
X11115344Y3909314D01*
X11129162Y3904792D01*
X11143488Y3902100D01*
G37*
G36*
X11441988Y4038092D02*
G01*
X11456466Y4039006D01*
X11470792Y4041698D01*
X11484610Y4046220D01*
X11497818Y4052417D01*
X11510060Y4060190D01*
X11521287Y4069486D01*
X11531244Y4080103D01*
X11539829Y4091889D01*
X11546840Y4104640D01*
X11552174Y4118152D01*
X11555780Y4132275D01*
X11557609Y4146702D01*
X11557609Y4161231D01*
X11555780Y4175658D01*
X11552174Y4189780D01*
X11546840Y4203293D01*
X11539829Y4216044D01*
X11531244Y4227830D01*
X11521287Y4238447D01*
X11510060Y4247743D01*
X11497818Y4255516D01*
X11484610Y4261713D01*
X11470792Y4266234D01*
X11456466Y4268927D01*
X11441988Y4269841D01*
X11427460Y4268927D01*
X11413134Y4266234D01*
X11399316Y4261713D01*
X11386108Y4255516D01*
X11373866Y4247743D01*
X11362639Y4238447D01*
X11352682Y4227830D01*
X11344097Y4216044D01*
X11337086Y4203293D01*
X11331752Y4189780D01*
X11328146Y4175658D01*
X11326317Y4161231D01*
X11326317Y4146702D01*
X11328146Y4132275D01*
X11331752Y4118152D01*
X11337086Y4104640D01*
X11344097Y4091889D01*
X11352682Y4080103D01*
X11362639Y4069486D01*
X11373866Y4060190D01*
X11386108Y4052417D01*
X11399316Y4046220D01*
X11413134Y4041698D01*
X11427460Y4039006D01*
G37*
G36*
X11158016Y4179062D02*
G01*
X11172494Y4179976D01*
X11186820Y4182668D01*
X11200638Y4187190D01*
X11213846Y4193387D01*
X11226088Y4201160D01*
X11237315Y4210456D01*
X11247272Y4221073D01*
X11255857Y4232859D01*
X11262868Y4245610D01*
X11268202Y4259122D01*
X11271808Y4273245D01*
X11273637Y4287672D01*
X11273637Y4302201D01*
X11271808Y4316628D01*
X11268202Y4330750D01*
X11262868Y4344263D01*
X11255857Y4357014D01*
X11247272Y4368800D01*
X11237315Y4379417D01*
X11226088Y4388713D01*
X11213846Y4396486D01*
X11200638Y4402683D01*
X11186820Y4407204D01*
X11172494Y4409897D01*
X11158016Y4410811D01*
X11143488Y4409897D01*
X11129162Y4407204D01*
X11115344Y4402683D01*
X11102136Y4396486D01*
X11089894Y4388713D01*
X11078667Y4379417D01*
X11068710Y4368800D01*
X11060125Y4357014D01*
X11053114Y4344263D01*
X11047780Y4330750D01*
X11044174Y4316628D01*
X11042345Y4302201D01*
X11042345Y4287672D01*
X11044174Y4273245D01*
X11047780Y4259122D01*
X11053114Y4245610D01*
X11060125Y4232859D01*
X11068710Y4221073D01*
X11078667Y4210456D01*
X11089894Y4201160D01*
X11102136Y4193387D01*
X11115344Y4187190D01*
X11129162Y4182668D01*
X11143488Y4179976D01*
G37*
G36*
X11441988Y4315206D02*
G01*
X11456466Y4316120D01*
X11470792Y4318812D01*
X11484610Y4323334D01*
X11497818Y4329531D01*
X11510060Y4337304D01*
X11521287Y4346600D01*
X11531244Y4357217D01*
X11539829Y4369003D01*
X11546840Y4381754D01*
X11552174Y4395266D01*
X11555780Y4409389D01*
X11557609Y4423816D01*
X11557609Y4438345D01*
X11555780Y4452772D01*
X11552174Y4466894D01*
X11546840Y4480407D01*
X11539829Y4493158D01*
X11531244Y4504944D01*
X11521287Y4515561D01*
X11510060Y4524857D01*
X11497818Y4532630D01*
X11484610Y4538827D01*
X11470792Y4543348D01*
X11456466Y4546041D01*
X11441988Y4546955D01*
X11427460Y4546041D01*
X11413134Y4543348D01*
X11399316Y4538827D01*
X11386108Y4532630D01*
X11373866Y4524857D01*
X11362639Y4515561D01*
X11352682Y4504944D01*
X11344097Y4493158D01*
X11337086Y4480407D01*
X11331752Y4466894D01*
X11328146Y4452772D01*
X11326317Y4438345D01*
X11326317Y4423816D01*
X11328146Y4409389D01*
X11331752Y4395266D01*
X11337086Y4381754D01*
X11344097Y4369003D01*
X11352682Y4357217D01*
X11362639Y4346600D01*
X11373866Y4337304D01*
X11386108Y4329531D01*
X11399316Y4323334D01*
X11413134Y4318812D01*
X11427460Y4316120D01*
G37*
G36*
X11158016Y4457192D02*
G01*
X11172494Y4458106D01*
X11186820Y4460798D01*
X11200638Y4465320D01*
X11213846Y4471517D01*
X11226088Y4479290D01*
X11237315Y4488586D01*
X11247272Y4499203D01*
X11255857Y4510989D01*
X11262868Y4523740D01*
X11268202Y4537252D01*
X11271808Y4551375D01*
X11273637Y4565802D01*
X11273637Y4580331D01*
X11271808Y4594758D01*
X11268202Y4608880D01*
X11262868Y4622393D01*
X11255857Y4635144D01*
X11247272Y4646930D01*
X11237315Y4657547D01*
X11226088Y4666843D01*
X11213846Y4674616D01*
X11200638Y4680813D01*
X11186820Y4685334D01*
X11172494Y4688027D01*
X11158016Y4688941D01*
X11143488Y4688027D01*
X11129162Y4685334D01*
X11115344Y4680813D01*
X11102136Y4674616D01*
X11089894Y4666843D01*
X11078667Y4657547D01*
X11068710Y4646930D01*
X11060125Y4635144D01*
X11053114Y4622393D01*
X11047780Y4608880D01*
X11044174Y4594758D01*
X11042345Y4580331D01*
X11042345Y4565802D01*
X11044174Y4551375D01*
X11047780Y4537252D01*
X11053114Y4523740D01*
X11060125Y4510989D01*
X11068710Y4499203D01*
X11078667Y4488586D01*
X11089894Y4479290D01*
X11102136Y4471517D01*
X11115344Y4465320D01*
X11129162Y4460798D01*
X11143488Y4458106D01*
G37*
G36*
X11441988Y4592066D02*
G01*
X11456466Y4592980D01*
X11470792Y4595672D01*
X11484610Y4600194D01*
X11497818Y4606391D01*
X11510060Y4614164D01*
X11521287Y4623460D01*
X11531244Y4634077D01*
X11539829Y4645863D01*
X11546840Y4658614D01*
X11552174Y4672126D01*
X11555780Y4686249D01*
X11557609Y4700676D01*
X11557609Y4715205D01*
X11555780Y4729632D01*
X11552174Y4743754D01*
X11546840Y4757267D01*
X11539829Y4770018D01*
X11531244Y4781804D01*
X11521287Y4792421D01*
X11510060Y4801717D01*
X11497818Y4809490D01*
X11484610Y4815687D01*
X11470792Y4820208D01*
X11456466Y4822901D01*
X11441988Y4823815D01*
X11427460Y4822901D01*
X11413134Y4820208D01*
X11399316Y4815687D01*
X11386108Y4809490D01*
X11373866Y4801717D01*
X11362639Y4792421D01*
X11352682Y4781804D01*
X11344097Y4770018D01*
X11337086Y4757267D01*
X11331752Y4743754D01*
X11328146Y4729632D01*
X11326317Y4715205D01*
X11326317Y4700676D01*
X11328146Y4686249D01*
X11331752Y4672126D01*
X11337086Y4658614D01*
X11344097Y4645863D01*
X11352682Y4634077D01*
X11362639Y4623460D01*
X11373866Y4614164D01*
X11386108Y4606391D01*
X11399316Y4600194D01*
X11413134Y4595672D01*
X11427460Y4592980D01*
G37*
G36*
X11158016Y4735068D02*
G01*
X11172494Y4735982D01*
X11186820Y4738674D01*
X11200638Y4743196D01*
X11213846Y4749393D01*
X11226088Y4757166D01*
X11237315Y4766462D01*
X11247272Y4777079D01*
X11255857Y4788865D01*
X11262868Y4801616D01*
X11268202Y4815128D01*
X11271808Y4829251D01*
X11273637Y4843678D01*
X11273637Y4858207D01*
X11271808Y4872634D01*
X11268202Y4886756D01*
X11262868Y4900269D01*
X11255857Y4913020D01*
X11247272Y4924806D01*
X11237315Y4935423D01*
X11226088Y4944719D01*
X11213846Y4952492D01*
X11200638Y4958689D01*
X11186820Y4963210D01*
X11172494Y4965903D01*
X11158016Y4966817D01*
X11143488Y4965903D01*
X11129162Y4963210D01*
X11115344Y4958689D01*
X11102136Y4952492D01*
X11089894Y4944719D01*
X11078667Y4935423D01*
X11068710Y4924806D01*
X11060125Y4913020D01*
X11053114Y4900269D01*
X11047780Y4886756D01*
X11044174Y4872634D01*
X11042345Y4858207D01*
X11042345Y4843678D01*
X11044174Y4829251D01*
X11047780Y4815128D01*
X11053114Y4801616D01*
X11060125Y4788865D01*
X11068710Y4777079D01*
X11078667Y4766462D01*
X11089894Y4757166D01*
X11102136Y4749393D01*
X11115344Y4743196D01*
X11129162Y4738674D01*
X11143488Y4735982D01*
G37*
G36*
X11441988Y4869180D02*
G01*
X11456466Y4870094D01*
X11470792Y4872786D01*
X11484610Y4877308D01*
X11497818Y4883505D01*
X11510060Y4891278D01*
X11521287Y4900574D01*
X11531244Y4911191D01*
X11539829Y4922977D01*
X11546840Y4935728D01*
X11552174Y4949240D01*
X11555780Y4963363D01*
X11557609Y4977790D01*
X11557609Y4992319D01*
X11555780Y5006746D01*
X11552174Y5020868D01*
X11546840Y5034381D01*
X11539829Y5047132D01*
X11531244Y5058918D01*
X11521287Y5069535D01*
X11510060Y5078831D01*
X11497818Y5086604D01*
X11484610Y5092801D01*
X11470792Y5097322D01*
X11456466Y5100015D01*
X11441988Y5100929D01*
X11427460Y5100015D01*
X11413134Y5097322D01*
X11399316Y5092801D01*
X11386108Y5086604D01*
X11373866Y5078831D01*
X11362639Y5069535D01*
X11352682Y5058918D01*
X11344097Y5047132D01*
X11337086Y5034381D01*
X11331752Y5020868D01*
X11328146Y5006746D01*
X11326317Y4992319D01*
X11326317Y4977790D01*
X11328146Y4963363D01*
X11331752Y4949240D01*
X11337086Y4935728D01*
X11344097Y4922977D01*
X11352682Y4911191D01*
X11362639Y4900574D01*
X11373866Y4891278D01*
X11386108Y4883505D01*
X11399316Y4877308D01*
X11413134Y4872786D01*
X11427460Y4870094D01*
G37*
G36*
X11158016Y5012944D02*
G01*
X11172494Y5013858D01*
X11186820Y5016550D01*
X11200638Y5021072D01*
X11213846Y5027269D01*
X11226088Y5035042D01*
X11237315Y5044338D01*
X11247272Y5054955D01*
X11255857Y5066741D01*
X11262868Y5079492D01*
X11268202Y5093004D01*
X11271808Y5107127D01*
X11273637Y5121554D01*
X11273637Y5136083D01*
X11271808Y5150510D01*
X11268202Y5164632D01*
X11262868Y5178145D01*
X11255857Y5190896D01*
X11247272Y5202682D01*
X11237315Y5213299D01*
X11226088Y5222595D01*
X11213846Y5230368D01*
X11200638Y5236565D01*
X11186820Y5241086D01*
X11172494Y5243779D01*
X11158016Y5244693D01*
X11143488Y5243779D01*
X11129162Y5241086D01*
X11115344Y5236565D01*
X11102136Y5230368D01*
X11089894Y5222595D01*
X11078667Y5213299D01*
X11068710Y5202682D01*
X11060125Y5190896D01*
X11053114Y5178145D01*
X11047780Y5164632D01*
X11044174Y5150510D01*
X11042345Y5136083D01*
X11042345Y5121554D01*
X11044174Y5107127D01*
X11047780Y5093004D01*
X11053114Y5079492D01*
X11060125Y5066741D01*
X11068710Y5054955D01*
X11078667Y5044338D01*
X11089894Y5035042D01*
X11102136Y5027269D01*
X11115344Y5021072D01*
X11129162Y5016550D01*
X11143488Y5013858D01*
G37*
G36*
X11493042Y5158232D02*
G01*
X11497564Y5160365D01*
X11509806Y5168138D01*
X11521033Y5177434D01*
X11530990Y5188051D01*
X11539575Y5199837D01*
X11545468Y5210556D01*
X11493042Y5210556D01*
G37*
G36*
X11390376Y5158232D02*
G01*
X11390376Y5210556D01*
X11337950Y5210556D01*
X11343843Y5199837D01*
X11352428Y5188051D01*
X11362385Y5177434D01*
X11373612Y5168138D01*
X11385854Y5160365D01*
G37*
G36*
X11493042Y5313273D02*
G01*
X11545468Y5313273D01*
X11539575Y5323992D01*
X11530990Y5335778D01*
X11521033Y5346395D01*
X11509806Y5355691D01*
X11497564Y5363464D01*
X11493042Y5365597D01*
G37*
G36*
X11337950Y5313273D02*
G01*
X11390376Y5313273D01*
X11390376Y5365597D01*
X11385854Y5363464D01*
X11373612Y5355691D01*
X11362385Y5346395D01*
X11352428Y5335778D01*
X11343843Y5323992D01*
G37*
G36*
X11304524Y5774182D02*
G01*
X11322558Y5775553D01*
X11340388Y5778804D01*
X11357762Y5783884D01*
X11374526Y5790692D01*
X11390528Y5799226D01*
X11405565Y5809335D01*
X11419433Y5820918D01*
X11432082Y5833872D01*
X11443360Y5848096D01*
X11453063Y5863386D01*
X11461140Y5879541D01*
X11467541Y5896508D01*
X11472164Y5914034D01*
X11474958Y5931916D01*
X11475872Y5950000D01*
X11474958Y5968085D01*
X11472164Y5985967D01*
X11467541Y6003493D01*
X11461140Y6020460D01*
X11453063Y6036614D01*
X11443360Y6051905D01*
X11432082Y6066129D01*
X11419433Y6079083D01*
X11405565Y6090666D01*
X11390528Y6100775D01*
X11374526Y6109309D01*
X11357762Y6116116D01*
X11340388Y6121196D01*
X11322558Y6124448D01*
X11304524Y6125819D01*
X11286388Y6125362D01*
X11268456Y6123025D01*
X11250828Y6118910D01*
X11233708Y6112916D01*
X11217300Y6105245D01*
X11201806Y6095949D01*
X11187277Y6085078D01*
X11174018Y6072784D01*
X11162030Y6059170D01*
X11151565Y6044387D01*
X11142624Y6028639D01*
X11135410Y6012027D01*
X11129873Y5994806D01*
X11126165Y5977077D01*
X11124336Y5959043D01*
X11124336Y5940958D01*
X11126165Y5922924D01*
X11129873Y5905195D01*
X11135410Y5887974D01*
X11142624Y5871362D01*
X11151565Y5855614D01*
X11162030Y5840831D01*
X11174018Y5827217D01*
X11187277Y5814923D01*
X11201806Y5804052D01*
X11217300Y5794756D01*
X11233708Y5787085D01*
X11250828Y5781090D01*
X11268456Y5776976D01*
X11286388Y5774639D01*
G37*
G36*
X1495247Y5809030D02*
G01*
X1514246Y5809538D01*
X1533144Y5811875D01*
X1551736Y5816142D01*
X1569770Y5822188D01*
X1587144Y5830011D01*
X1603603Y5839561D01*
X1619097Y5850686D01*
X1633372Y5863285D01*
X1646326Y5877204D01*
X1657807Y5892393D01*
X1667713Y5908649D01*
X1675993Y5925820D01*
X1682496Y5943701D01*
X1687220Y5962142D01*
X1690065Y5980988D01*
X1690979Y5999988D01*
X1690065Y6018987D01*
X1687220Y6037834D01*
X1682496Y6056274D01*
X1675993Y6074156D01*
X1667713Y6091326D01*
X1657807Y6107582D01*
X1646326Y6122771D01*
X1633372Y6136690D01*
X1619097Y6149289D01*
X1603603Y6160414D01*
X1587144Y6169964D01*
X1569770Y6177788D01*
X1551736Y6183833D01*
X1533144Y6188100D01*
X1514246Y6190437D01*
X1495247Y6190945D01*
X1476248Y6189522D01*
X1457502Y6186170D01*
X1439164Y6181039D01*
X1421434Y6174079D01*
X1404518Y6165392D01*
X1388516Y6155080D01*
X1373632Y6143193D01*
X1359966Y6129883D01*
X1347724Y6115304D01*
X1337005Y6099556D01*
X1327912Y6082842D01*
X1320495Y6065316D01*
X1314907Y6047130D01*
X1311148Y6028436D01*
X1309217Y6009487D01*
X1309217Y5990488D01*
X1311148Y5971540D01*
X1314907Y5952845D01*
X1320495Y5934659D01*
X1327912Y5917133D01*
X1337005Y5900420D01*
X1347724Y5884672D01*
X1359966Y5870092D01*
X1373632Y5856782D01*
X1388516Y5844895D01*
X1404518Y5834583D01*
X1421434Y5825896D01*
X1439164Y5818936D01*
X1457502Y5813806D01*
X1476248Y5810453D01*
G37*
G36*
X3495243Y5809030D02*
G01*
X3514242Y5809538D01*
X3533140Y5811875D01*
X3551732Y5816142D01*
X3569766Y5822188D01*
X3587140Y5830011D01*
X3603599Y5839561D01*
X3619093Y5850686D01*
X3633368Y5863285D01*
X3646322Y5877204D01*
X3657803Y5892393D01*
X3667709Y5908649D01*
X3675989Y5925820D01*
X3682492Y5943701D01*
X3687216Y5962142D01*
X3690061Y5980988D01*
X3690975Y5999988D01*
X3690061Y6018987D01*
X3687216Y6037834D01*
X3682492Y6056274D01*
X3675989Y6074156D01*
X3667709Y6091326D01*
X3657803Y6107582D01*
X3646322Y6122771D01*
X3633368Y6136690D01*
X3619093Y6149289D01*
X3603599Y6160414D01*
X3587140Y6169964D01*
X3569766Y6177788D01*
X3551732Y6183833D01*
X3533140Y6188100D01*
X3514242Y6190437D01*
X3495243Y6190945D01*
X3476244Y6189522D01*
X3457498Y6186170D01*
X3439160Y6181039D01*
X3421430Y6174079D01*
X3404514Y6165392D01*
X3388512Y6155080D01*
X3373628Y6143193D01*
X3359962Y6129883D01*
X3347720Y6115304D01*
X3337001Y6099556D01*
X3327908Y6082842D01*
X3320491Y6065316D01*
X3314903Y6047130D01*
X3311144Y6028436D01*
X3309213Y6009487D01*
X3309213Y5990488D01*
X3311144Y5971540D01*
X3314903Y5952845D01*
X3320491Y5934659D01*
X3327908Y5917133D01*
X3337001Y5900420D01*
X3347720Y5884672D01*
X3359962Y5870092D01*
X3373628Y5856782D01*
X3388512Y5844895D01*
X3404514Y5834583D01*
X3421430Y5825896D01*
X3439160Y5818936D01*
X3457498Y5813806D01*
X3476244Y5810453D01*
G37*
G36*
X5495239Y5809030D02*
G01*
X5514238Y5809538D01*
X5533136Y5811875D01*
X5551728Y5816142D01*
X5569762Y5822188D01*
X5587136Y5830011D01*
X5603595Y5839561D01*
X5619089Y5850686D01*
X5633364Y5863285D01*
X5646318Y5877204D01*
X5657799Y5892393D01*
X5667705Y5908649D01*
X5675985Y5925820D01*
X5682488Y5943701D01*
X5687212Y5962142D01*
X5690057Y5980988D01*
X5690971Y5999988D01*
X5690057Y6018987D01*
X5687212Y6037834D01*
X5682488Y6056274D01*
X5675985Y6074156D01*
X5667705Y6091326D01*
X5657799Y6107582D01*
X5646318Y6122771D01*
X5633364Y6136690D01*
X5619089Y6149289D01*
X5603595Y6160414D01*
X5587136Y6169964D01*
X5569762Y6177788D01*
X5551728Y6183833D01*
X5533136Y6188100D01*
X5514238Y6190437D01*
X5495239Y6190945D01*
X5476240Y6189522D01*
X5457494Y6186170D01*
X5439156Y6181039D01*
X5421426Y6174079D01*
X5404510Y6165392D01*
X5388508Y6155080D01*
X5373624Y6143193D01*
X5359958Y6129883D01*
X5347716Y6115304D01*
X5336997Y6099556D01*
X5327904Y6082842D01*
X5320487Y6065316D01*
X5314899Y6047130D01*
X5311140Y6028436D01*
X5309209Y6009487D01*
X5309209Y5990488D01*
X5311140Y5971540D01*
X5314899Y5952845D01*
X5320487Y5934659D01*
X5327904Y5917133D01*
X5336997Y5900420D01*
X5347716Y5884672D01*
X5359958Y5870092D01*
X5373624Y5856782D01*
X5388508Y5844895D01*
X5404510Y5834583D01*
X5421426Y5825896D01*
X5439156Y5818936D01*
X5457494Y5813806D01*
X5476240Y5810453D01*
G37*
G36*
X7495235Y5809030D02*
G01*
X7514234Y5809538D01*
X7533131Y5811875D01*
X7551724Y5816142D01*
X7569758Y5822188D01*
X7587132Y5830011D01*
X7603591Y5839561D01*
X7619085Y5850686D01*
X7633360Y5863285D01*
X7646314Y5877204D01*
X7657795Y5892393D01*
X7667701Y5908649D01*
X7675981Y5925820D01*
X7682484Y5943701D01*
X7687208Y5962142D01*
X7690053Y5980988D01*
X7690967Y5999988D01*
X7690053Y6018987D01*
X7687208Y6037834D01*
X7682484Y6056274D01*
X7675981Y6074156D01*
X7667701Y6091326D01*
X7657795Y6107582D01*
X7646314Y6122771D01*
X7633360Y6136690D01*
X7619085Y6149289D01*
X7603591Y6160414D01*
X7587132Y6169964D01*
X7569758Y6177788D01*
X7551724Y6183833D01*
X7533131Y6188100D01*
X7514234Y6190437D01*
X7495235Y6190945D01*
X7476236Y6189522D01*
X7457490Y6186170D01*
X7439152Y6181039D01*
X7421422Y6174079D01*
X7404506Y6165392D01*
X7388504Y6155080D01*
X7373620Y6143193D01*
X7359954Y6129883D01*
X7347712Y6115304D01*
X7336993Y6099556D01*
X7327900Y6082842D01*
X7320483Y6065316D01*
X7314895Y6047130D01*
X7311136Y6028436D01*
X7309205Y6009487D01*
X7309205Y5990488D01*
X7311136Y5971540D01*
X7314895Y5952845D01*
X7320483Y5934659D01*
X7327900Y5917133D01*
X7336993Y5900420D01*
X7347712Y5884672D01*
X7359954Y5870092D01*
X7373620Y5856782D01*
X7388504Y5844895D01*
X7404506Y5834583D01*
X7421422Y5825896D01*
X7439152Y5818936D01*
X7457490Y5813806D01*
X7476236Y5810453D01*
G37*
G36*
X1495247Y6809028D02*
G01*
X1514246Y6809536D01*
X1533144Y6811873D01*
X1551736Y6816140D01*
X1569770Y6822186D01*
X1587144Y6830009D01*
X1603603Y6839559D01*
X1619097Y6850684D01*
X1633372Y6863283D01*
X1646326Y6877202D01*
X1657807Y6892391D01*
X1667713Y6908647D01*
X1675993Y6925818D01*
X1682496Y6943699D01*
X1687220Y6962140D01*
X1690065Y6980986D01*
X1690979Y6999986D01*
X1690065Y7018985D01*
X1687220Y7037831D01*
X1682496Y7056272D01*
X1675993Y7074153D01*
X1667713Y7091324D01*
X1657807Y7107580D01*
X1646326Y7122769D01*
X1633372Y7136688D01*
X1619097Y7149287D01*
X1603603Y7160412D01*
X1587144Y7169962D01*
X1569770Y7177786D01*
X1551736Y7183831D01*
X1533144Y7188098D01*
X1514246Y7190435D01*
X1495247Y7190943D01*
X1476248Y7189520D01*
X1457502Y7186168D01*
X1439164Y7181037D01*
X1421434Y7174077D01*
X1404518Y7165390D01*
X1388516Y7155078D01*
X1373632Y7143191D01*
X1359966Y7129881D01*
X1347724Y7115302D01*
X1337005Y7099553D01*
X1327912Y7082840D01*
X1320495Y7065314D01*
X1314907Y7047128D01*
X1311148Y7028434D01*
X1309217Y7009485D01*
X1309217Y6990486D01*
X1311148Y6971538D01*
X1314907Y6952843D01*
X1320495Y6934657D01*
X1327912Y6917131D01*
X1337005Y6900418D01*
X1347724Y6884670D01*
X1359966Y6870090D01*
X1373632Y6856780D01*
X1388516Y6844893D01*
X1404518Y6834581D01*
X1421434Y6825894D01*
X1439164Y6818934D01*
X1457502Y6813803D01*
X1476248Y6810451D01*
G37*
G36*
X5495239Y6809028D02*
G01*
X5514238Y6809536D01*
X5533136Y6811873D01*
X5551728Y6816140D01*
X5569762Y6822186D01*
X5587136Y6830009D01*
X5603595Y6839559D01*
X5619089Y6850684D01*
X5633364Y6863283D01*
X5646318Y6877202D01*
X5657799Y6892391D01*
X5667705Y6908647D01*
X5675985Y6925818D01*
X5682488Y6943699D01*
X5687212Y6962140D01*
X5690057Y6980986D01*
X5690971Y6999986D01*
X5690057Y7018985D01*
X5687212Y7037831D01*
X5682488Y7056272D01*
X5675985Y7074153D01*
X5667705Y7091324D01*
X5657799Y7107580D01*
X5646318Y7122769D01*
X5633364Y7136688D01*
X5619089Y7149287D01*
X5603595Y7160412D01*
X5587136Y7169962D01*
X5569762Y7177786D01*
X5551728Y7183831D01*
X5533136Y7188098D01*
X5514238Y7190435D01*
X5495239Y7190943D01*
X5476240Y7189520D01*
X5457494Y7186168D01*
X5439156Y7181037D01*
X5421426Y7174077D01*
X5404510Y7165390D01*
X5388508Y7155078D01*
X5373624Y7143191D01*
X5359958Y7129881D01*
X5347716Y7115302D01*
X5336997Y7099553D01*
X5327904Y7082840D01*
X5320487Y7065314D01*
X5314899Y7047128D01*
X5311140Y7028434D01*
X5309209Y7009485D01*
X5309209Y6990486D01*
X5311140Y6971538D01*
X5314899Y6952843D01*
X5320487Y6934657D01*
X5327904Y6917131D01*
X5336997Y6900418D01*
X5347716Y6884670D01*
X5359958Y6870090D01*
X5373624Y6856780D01*
X5388508Y6844893D01*
X5404510Y6834581D01*
X5421426Y6825894D01*
X5439156Y6818934D01*
X5457494Y6813803D01*
X5476240Y6810451D01*
G37*
G36*
X7495235Y6809028D02*
G01*
X7514234Y6809536D01*
X7533131Y6811873D01*
X7551724Y6816140D01*
X7569758Y6822186D01*
X7587132Y6830009D01*
X7603591Y6839559D01*
X7619085Y6850684D01*
X7633360Y6863283D01*
X7646314Y6877202D01*
X7657795Y6892391D01*
X7667701Y6908647D01*
X7675981Y6925818D01*
X7682484Y6943699D01*
X7687208Y6962140D01*
X7690053Y6980986D01*
X7690967Y6999986D01*
X7690053Y7018985D01*
X7687208Y7037831D01*
X7682484Y7056272D01*
X7675981Y7074153D01*
X7667701Y7091324D01*
X7657795Y7107580D01*
X7646314Y7122769D01*
X7633360Y7136688D01*
X7619085Y7149287D01*
X7603591Y7160412D01*
X7587132Y7169962D01*
X7569758Y7177786D01*
X7551724Y7183831D01*
X7533131Y7188098D01*
X7514234Y7190435D01*
X7495235Y7190943D01*
X7476236Y7189520D01*
X7457490Y7186168D01*
X7439152Y7181037D01*
X7421422Y7174077D01*
X7404506Y7165390D01*
X7388504Y7155078D01*
X7373620Y7143191D01*
X7359954Y7129881D01*
X7347712Y7115302D01*
X7336993Y7099553D01*
X7327900Y7082840D01*
X7320483Y7065314D01*
X7314895Y7047128D01*
X7311136Y7028434D01*
X7309205Y7009485D01*
X7309205Y6990486D01*
X7311136Y6971538D01*
X7314895Y6952843D01*
X7320483Y6934657D01*
X7327900Y6917131D01*
X7336993Y6900418D01*
X7347712Y6884670D01*
X7359954Y6870090D01*
X7373620Y6856780D01*
X7388504Y6844893D01*
X7404506Y6834581D01*
X7421422Y6825894D01*
X7439152Y6818934D01*
X7457490Y6813803D01*
X7476236Y6810451D01*
G37*
G36*
X3495243Y6809028D02*
G01*
X3514242Y6809536D01*
X3533140Y6811873D01*
X3551732Y6816140D01*
X3569766Y6822186D01*
X3587140Y6830009D01*
X3603599Y6839559D01*
X3619093Y6850684D01*
X3633368Y6863283D01*
X3646322Y6877202D01*
X3657803Y6892391D01*
X3667709Y6908647D01*
X3675989Y6925818D01*
X3682492Y6943699D01*
X3687216Y6962140D01*
X3690061Y6980986D01*
X3690975Y6999986D01*
X3690061Y7018985D01*
X3687216Y7037831D01*
X3682492Y7056272D01*
X3675989Y7074153D01*
X3667709Y7091324D01*
X3657803Y7107580D01*
X3646322Y7122769D01*
X3633368Y7136688D01*
X3619093Y7149287D01*
X3603599Y7160412D01*
X3587140Y7169962D01*
X3569766Y7177786D01*
X3551732Y7183831D01*
X3533140Y7188098D01*
X3514242Y7190435D01*
X3495243Y7190943D01*
X3476244Y7189520D01*
X3457498Y7186168D01*
X3439160Y7181037D01*
X3421430Y7174077D01*
X3404514Y7165390D01*
X3388512Y7155078D01*
X3373628Y7143191D01*
X3359962Y7129881D01*
X3347720Y7115302D01*
X3337001Y7099553D01*
X3327908Y7082840D01*
X3320491Y7065314D01*
X3314903Y7047128D01*
X3311144Y7028434D01*
X3309213Y7009485D01*
X3309213Y6990486D01*
X3311144Y6971538D01*
X3314903Y6952843D01*
X3320491Y6934657D01*
X3327908Y6917131D01*
X3337001Y6900418D01*
X3347720Y6884670D01*
X3359962Y6870090D01*
X3373628Y6856780D01*
X3388512Y6844893D01*
X3404514Y6834581D01*
X3421430Y6825894D01*
X3439160Y6818934D01*
X3457498Y6813803D01*
X3476244Y6810451D01*
G37*
G36*
X504545Y7324140D02*
G01*
X522579Y7325563D01*
X540410Y7328814D01*
X557784Y7333843D01*
X574548Y7340701D01*
X590550Y7349185D01*
X605586Y7359294D01*
X619455Y7370876D01*
X632104Y7383881D01*
X643382Y7398054D01*
X653084Y7413345D01*
X661162Y7429550D01*
X667562Y7446518D01*
X672185Y7463993D01*
X674979Y7481874D01*
X675894Y7499959D01*
X674979Y7518095D01*
X672185Y7535976D01*
X667562Y7553452D01*
X661162Y7570419D01*
X653084Y7586624D01*
X643382Y7601915D01*
X632104Y7616088D01*
X619455Y7629093D01*
X605586Y7640675D01*
X590550Y7650784D01*
X574548Y7659268D01*
X557784Y7666126D01*
X540410Y7671155D01*
X522579Y7674406D01*
X504545Y7675829D01*
X486409Y7675372D01*
X468477Y7673035D01*
X450850Y7668869D01*
X433730Y7662925D01*
X417322Y7655255D01*
X401828Y7645908D01*
X387299Y7635036D01*
X374040Y7622743D01*
X362051Y7609128D01*
X351586Y7594396D01*
X342646Y7578648D01*
X335432Y7562037D01*
X329895Y7544765D01*
X326186Y7527036D01*
X324358Y7509052D01*
X324358Y7490917D01*
X326186Y7472934D01*
X329895Y7455204D01*
X335432Y7437932D01*
X342646Y7421321D01*
X351586Y7405573D01*
X362051Y7390841D01*
X374040Y7377226D01*
X387299Y7364933D01*
X401828Y7354062D01*
X417322Y7344714D01*
X433730Y7337044D01*
X450850Y7331100D01*
X468477Y7326934D01*
X486409Y7324598D01*
G37*

%LPD*%
D10*
X11441709Y5261914D02*
G01*
X11138052Y5261914D01*
X10199979Y6199987D01*
D11*
G01*
X11441709Y5261914D03*
G01*
X11441963Y4985054D03*
G01*
X11441963Y4707940D03*
G01*
X11441963Y4431080D03*
G01*
X11441963Y4153966D03*
G01*
X11441963Y3877106D03*
G01*
X11441963Y3599992D03*
G01*
X11441963Y3323132D03*
G01*
X11441963Y3046018D03*
G01*
X11441963Y2768904D03*
G01*
X11441963Y2492044D03*
G01*
X11441963Y2214930D03*
G01*
X11441963Y1938070D03*
G01*
X11157991Y5128818D03*
G01*
X11157991Y4850942D03*
G01*
X11157991Y4573066D03*
G01*
X11157991Y4294936D03*
G01*
X11157991Y4017060D03*
G01*
X11157991Y3738930D03*
G01*
X11157991Y3461054D03*
G01*
X11157991Y3182924D03*
G01*
X11157991Y2905048D03*
G01*
X11157991Y2626918D03*
G01*
X11157991Y2349042D03*
G01*
X11157991Y2070912D03*
D12*
G01*
X9299981Y5496991D03*
G01*
X9299981Y5242991D03*
G01*
X9299981Y4988991D03*
G01*
X9299981Y4734991D03*
G01*
X9299981Y4480991D03*
G01*
X9299981Y4226991D03*
G01*
X9299981Y3972991D03*
G01*
X9299981Y3718991D03*
G01*
X9299981Y3464991D03*
G01*
X9299981Y3210991D03*
G01*
X9299981Y2956991D03*
G01*
X9299981Y2702991D03*
D13*
G01*
X1499996Y5999987D03*
G01*
X1499996Y6999986D03*
G01*
X3499993Y5999987D03*
G01*
X3499993Y6999986D03*
G01*
X5499988Y5999987D03*
G01*
X5499988Y6999986D03*
G01*
X7499984Y5999987D03*
G01*
X7499984Y6999986D03*
G01*
X7499984Y999997D03*
G01*
X7499984Y1999995D03*
G01*
X5499988Y999997D03*
G01*
X5499988Y1999995D03*
G01*
X3499993Y999997D03*
G01*
X3499993Y1999995D03*
G01*
X1999995Y999997D03*
G01*
X1999995Y1999995D03*
M02*
